M48
; DRILL file {KiCad 9.0.4} date 2026-07-22T16:11:32-0500
; FORMAT={-:-/ absolute / metric / decimal}
; #@! TF.CreationDate,2026-07-22T16:11:32-05:00
; #@! TF.GenerationSoftware,Kicad,Pcbnew,9.0.4
; #@! TF.FileFunction,Plated,1,2,PTH
FMAT,2
METRIC
; #@! TA.AperFunction,Plated,PTH,ViaDrill
T1C0.300
; #@! TA.AperFunction,Plated,PTH,ComponentDrill
T2C0.400
; #@! TA.AperFunction,Plated,PTH,ComponentDrill
T3C0.600
; #@! TA.AperFunction,Plated,PTH,ComponentDrill
T4C0.650
; #@! TA.AperFunction,Plated,PTH,ComponentDrill
T5C0.800
; #@! TA.AperFunction,Plated,PTH,ComponentDrill
T6C1.000
; #@! TA.AperFunction,Plated,PTH,ComponentDrill
T7C1.100
; #@! TA.AperFunction,Plated,PTH,ComponentDrill
T8C1.300
; #@! TA.AperFunction,Plated,PTH,ComponentDrill
T9C1.500
; #@! TA.AperFunction,Plated,PTH,ComponentDrill
T10C1.850
%
G90
G05
T1
X92.5Y-157.5
X97.25Y-159.084
X98.0Y-161.75
X102.0Y-73.0
X109.25Y-159.084
X111.5Y-146.15
X112.25Y-147.35
X112.5Y-141.5
X112.75Y-144.0
X113.25Y-148.0
X115.0Y-148.0
X115.5Y-146.25
X115.75Y-147.25
X117.0Y-144.0
X117.75Y-141.5
X120.25Y-104.75
X127.75Y-141.7
X132.75Y-69.95
X132.75Y-71.351
X133.25Y-73.5
X134.5Y-69.95
X137.25Y-145.75
X142.5Y-137.0
X145.25Y-74.55
X146.25Y-74.0
X147.55Y-140.5
X149.5Y-132.75
X149.5Y-140.5
X151.75Y-138.5
X153.0Y-157.95
X155.25Y-149.75
X158.25Y-150.25
X160.25Y-150.5
X163.0Y-151.0
X165.5Y-84.75
X165.5Y-151.5
X167.25Y-121.25
X168.5Y-152.0
X168.6Y-122.0
X169.25Y-121.337
X173.0Y-152.75
X174.0Y-84.25
X175.25Y-153.75
X175.75Y-95.5
X176.0Y-121.0
X176.75Y-120.0
X177.75Y-153.0
X180.0Y-156.05
X182.75Y-156.05
X185.25Y-97.5
X185.25Y-156.65
X186.25Y-122.0
X186.75Y-75.75
X187.165Y-126.5
X187.25Y-75.0
X187.5Y-157.25
X189.5Y-120.75
X189.75Y-154.45
X190.25Y-117.5
X192.0Y-79.5
X192.5Y-155.0
X198.0Y-144.0
X198.0Y-147.55
X199.0Y-141.25
X199.0Y-144.0
X199.0Y-147.25
X199.5Y-132.75
X200.75Y-96.25
X200.75Y-133.5
X201.25Y-78.75
X207.572Y-150.394
X208.0Y-94.0
X208.0Y-97.0
X208.5Y-150.695
X209.981Y-151.697
X210.0Y-149.6
X210.25Y-152.45
X210.75Y-150.2
X210.75Y-151.0
X210.9Y-153.0
X210.9Y-154.0
X213.25Y-80.5
X216.225Y-157.5
X216.5Y-80.5
X218.5Y-157.5
X220.0Y-161.9
X220.5Y-159.75
X224.298Y-98.0
X224.848Y-97.05
X225.0Y-96.25
X225.45Y-95.55
X225.75Y-94.75
X233.5Y-124.0
T4
X170.963Y-131.0
X172.863Y-131.0
T6
X108.0Y-85.25
X108.0Y-99.75
X110.25Y-63.675
X110.5Y-99.75
X113.0Y-85.25
X113.0Y-99.75
X114.75Y-63.675
X168.321Y-81.3
X170.861Y-81.3
X173.401Y-81.3
X175.941Y-81.3
X230.0Y-63.425
X231.75Y-85.25
X231.75Y-99.75
X234.25Y-99.75
X234.5Y-63.425
X236.75Y-85.25
X236.75Y-99.75
T7
X127.5Y-121.75
X127.5Y-126.25
X134.0Y-121.75
X134.0Y-126.25
X147.376Y-145.38
X147.376Y-160.62
X149.916Y-145.38
X149.916Y-160.62
X152.456Y-145.38
X152.456Y-160.62
X154.996Y-145.38
X154.996Y-160.62
X157.536Y-145.38
X157.536Y-160.62
X160.076Y-145.38
X160.076Y-160.62
X162.616Y-145.38
X162.616Y-160.62
X165.156Y-145.38
X165.156Y-160.62
X167.696Y-145.38
X167.696Y-160.62
X170.236Y-145.38
X170.236Y-160.62
X172.776Y-145.38
X172.776Y-160.62
X175.316Y-145.38
X175.316Y-160.62
X177.856Y-145.38
X177.856Y-160.62
X180.396Y-145.38
X180.396Y-160.62
X182.936Y-145.38
X182.936Y-160.62
X185.476Y-145.38
X185.476Y-160.62
X188.016Y-145.38
X188.016Y-160.62
X190.556Y-145.38
X190.556Y-160.62
X193.096Y-145.38
X193.096Y-160.62
X195.636Y-145.38
X195.636Y-160.62
X210.5Y-121.75
X210.5Y-126.25
X217.0Y-121.75
X217.0Y-126.25
T8
X109.0Y-66.175
X116.0Y-66.175
X228.75Y-65.925
X235.75Y-65.925
T10
X124.55Y-62.76
X126.775Y-72.92
X126.775Y-76.73
X126.775Y-80.54
X129.0Y-62.76
T2
G00X160.4Y-69.9
M15
G01X160.4Y-70.9
M16
G05
G00X164.9Y-65.4
M15
G01X165.9Y-65.4
M16
G05
G00X170.4Y-70.9
M15
G01X170.4Y-69.9
M16
G05
G00X175.35Y-69.9
M15
G01X175.35Y-70.9
M16
G05
G00X179.85Y-65.4
M15
G01X180.85Y-65.4
M16
G05
G00X185.35Y-70.9
M15
G01X185.35Y-69.9
M16
G05
G00X190.5Y-69.75
M15
G01X190.5Y-70.75
M16
G05
G00X195.0Y-65.25
M15
G01X196.0Y-65.25
M16
G05
G00X200.5Y-70.75
M15
G01X200.5Y-69.75
M16
G05
G00X205.5Y-69.75
M15
G01X205.5Y-70.75
M16
G05
G00X210.0Y-65.25
M15
G01X211.0Y-65.25
M16
G05
G00X215.5Y-70.75
M15
G01X215.5Y-69.75
M16
G05
G00X234.0Y-151.5
M15
G01X234.0Y-152.5
M16
G05
G00X239.5Y-157.0
M15
G01X238.5Y-157.0
M16
G05
G00X244.0Y-152.5
M15
G01X244.0Y-151.5
M16
G05
T3
G00X132.43Y-63.1
M15
G01X132.43Y-63.9
M16
G05
G00X132.43Y-67.13
M15
G01X132.43Y-68.23
M16
G05
G00X141.07Y-63.1
M15
G01X141.07Y-63.9
M16
G05
G00X141.07Y-67.13
M15
G01X141.07Y-68.23
M16
G05
T5
G00X162.9Y-70.05
M15
G01X162.9Y-70.75
M16
G05
G00X167.9Y-70.75
M15
G01X167.9Y-70.05
M16
G05
G00X177.85Y-70.05
M15
G01X177.85Y-70.75
M16
G05
G00X182.85Y-70.75
M15
G01X182.85Y-70.05
M16
G05
G00X193.0Y-69.9
M15
G01X193.0Y-70.6
M16
G05
G00X198.0Y-70.6
M15
G01X198.0Y-69.9
M16
G05
G00X208.0Y-69.9
M15
G01X208.0Y-70.6
M16
G05
G00X213.0Y-70.6
M15
G01X213.0Y-69.9
M16
G05
G00X236.5Y-151.65
M15
G01X236.5Y-152.35
M16
G05
G00X241.5Y-152.35
M15
G01X241.5Y-151.65
M16
G05
T9
G00X104.9Y-92.9
M15
G01X104.9Y-91.6
M16
G05
G00X116.1Y-92.9
M15
G01X116.1Y-91.6
M16
G05
G00X228.65Y-92.9
M15
G01X228.65Y-91.6
M16
G05
G00X239.85Y-92.9
M15
G01X239.85Y-91.6
M16
G05
M30
