%TF.GenerationSoftware,KiCad,Pcbnew,9.0.4*%
%TF.CreationDate,2026-07-22T16:11:35-05:00*%
%TF.ProjectId,WavetableController,57617665-7461-4626-9c65-436f6e74726f,rev?*%
%TF.SameCoordinates,Original*%
%TF.FileFunction,Profile,NP*%
%FSLAX46Y46*%
G04 Gerber Fmt 4.6, Leading zero omitted, Abs format (unit mm)*
G04 Created by KiCad (PCBNEW 9.0.4) date 2026-07-22 16:11:35*
%MOMM*%
%LPD*%
G01*
G04 APERTURE LIST*
%TA.AperFunction,Profile*%
%ADD10C,0.199999*%
%TD*%
G04 APERTURE END LIST*
D10*
X246126818Y-61111734D02*
X246584783Y-61146558D01*
X247036088Y-61203905D01*
X247480169Y-61283210D01*
X247916457Y-61383905D01*
X248344388Y-61505423D01*
X248763393Y-61647198D01*
X249172907Y-61808664D01*
X249572362Y-61989254D01*
X249961193Y-62188401D01*
X250338832Y-62405539D01*
X250704713Y-62640101D01*
X251058270Y-62891520D01*
X251398935Y-63159230D01*
X251726143Y-63442664D01*
X252039326Y-63741256D01*
X252337918Y-64054439D01*
X252621353Y-64381647D01*
X252889063Y-64722312D01*
X253140483Y-65075868D01*
X253375045Y-65441749D01*
X253592182Y-65819388D01*
X253791330Y-66208218D01*
X253971920Y-66607673D01*
X254133386Y-67017187D01*
X254275161Y-67436191D01*
X254396680Y-67864121D01*
X254497375Y-68300410D01*
X254576679Y-68744489D01*
X254634027Y-69195794D01*
X254668851Y-69653758D01*
X254680585Y-70117814D01*
X254680585Y-153682176D01*
X254668851Y-154146232D01*
X254634027Y-154604196D01*
X254576679Y-155055502D01*
X254497375Y-155499583D01*
X254396680Y-155935871D01*
X254275161Y-156363801D01*
X254133386Y-156782807D01*
X253971920Y-157192320D01*
X253791330Y-157591776D01*
X253592182Y-157980607D01*
X253375045Y-158358246D01*
X253140483Y-158724127D01*
X252889063Y-159077684D01*
X252621353Y-159418349D01*
X252337918Y-159745557D01*
X252039326Y-160058740D01*
X251726143Y-160357332D01*
X251398935Y-160640767D01*
X251058270Y-160908477D01*
X250704713Y-161159897D01*
X250338832Y-161394458D01*
X249961193Y-161611596D01*
X249572362Y-161810744D01*
X249172907Y-161991334D01*
X248763393Y-162152800D01*
X248344388Y-162294575D01*
X247916457Y-162416094D01*
X247480169Y-162516788D01*
X247036088Y-162596093D01*
X246584783Y-162653441D01*
X246126818Y-162688265D01*
X245662762Y-162699998D01*
X98598430Y-162699998D01*
X98134374Y-162688265D01*
X97676410Y-162653441D01*
X97225105Y-162596093D01*
X96781024Y-162516788D01*
X96344736Y-162416094D01*
X95916805Y-162294575D01*
X95497800Y-162152800D01*
X95088286Y-161991334D01*
X94688831Y-161810744D01*
X94300000Y-161611596D01*
X93922361Y-161394458D01*
X93556480Y-161159897D01*
X93202923Y-160908477D01*
X92862258Y-160640767D01*
X92535050Y-160357332D01*
X92221867Y-160058740D01*
X91923275Y-159745557D01*
X91639840Y-159418349D01*
X91372130Y-159077684D01*
X91120711Y-158724127D01*
X90886149Y-158358246D01*
X90669011Y-157980607D01*
X90469864Y-157591776D01*
X90289274Y-157192320D01*
X90127808Y-156782807D01*
X89986032Y-156363801D01*
X89864514Y-155935871D01*
X89763819Y-155499583D01*
X89684514Y-155055502D01*
X89627167Y-154604196D01*
X89592343Y-154146232D01*
X89580609Y-153682176D01*
X89580609Y-70117814D01*
X89592343Y-69653758D01*
X89627167Y-69195794D01*
X89684514Y-68744489D01*
X89763819Y-68300410D01*
X89864514Y-67864121D01*
X89986032Y-67436191D01*
X90127808Y-67017187D01*
X90289274Y-66607673D01*
X90469864Y-66208218D01*
X90669011Y-65819388D01*
X90886149Y-65441749D01*
X91120711Y-65075868D01*
X91372130Y-64722312D01*
X91639840Y-64381647D01*
X91923275Y-64054439D01*
X92221867Y-63741256D01*
X92535050Y-63442664D01*
X92862258Y-63159230D01*
X93202923Y-62891520D01*
X93556480Y-62640101D01*
X93922361Y-62405539D01*
X94300000Y-62188401D01*
X94688831Y-61989254D01*
X95088286Y-61808664D01*
X95497800Y-61647198D01*
X95916805Y-61505423D01*
X96344736Y-61383905D01*
X96781024Y-61283210D01*
X97225105Y-61203905D01*
X97676410Y-61146558D01*
X98134374Y-61111734D01*
X98598430Y-61100000D01*
X245662762Y-61100000D01*
X246126818Y-61111734D01*
M02*
