%TF.GenerationSoftware,KiCad,Pcbnew,9.0.4*%
%TF.CreationDate,2026-07-22T16:11:35-05:00*%
%TF.ProjectId,WavetableController,57617665-7461-4626-9c65-436f6e74726f,rev?*%
%TF.SameCoordinates,Original*%
%TF.FileFunction,Soldermask,Top*%
%TF.FilePolarity,Negative*%
%FSLAX46Y46*%
G04 Gerber Fmt 4.6, Leading zero omitted, Abs format (unit mm)*
G04 Created by KiCad (PCBNEW 9.0.4) date 2026-07-22 16:11:35*
%MOMM*%
%LPD*%
G01*
G04 APERTURE LIST*
G04 Aperture macros list*
%AMRoundRect*
0 Rectangle with rounded corners*
0 $1 Rounding radius*
0 $2 $3 $4 $5 $6 $7 $8 $9 X,Y pos of 4 corners*
0 Add a 4 corners polygon primitive as box body*
4,1,4,$2,$3,$4,$5,$6,$7,$8,$9,$2,$3,0*
0 Add four circle primitives for the rounded corners*
1,1,$1+$1,$2,$3*
1,1,$1+$1,$4,$5*
1,1,$1+$1,$6,$7*
1,1,$1+$1,$8,$9*
0 Add four rect primitives between the rounded corners*
20,1,$1+$1,$2,$3,$4,$5,0*
20,1,$1+$1,$4,$5,$6,$7,0*
20,1,$1+$1,$6,$7,$8,$9,0*
20,1,$1+$1,$8,$9,$2,$3,0*%
G04 Aperture macros list end*
%ADD10C,1.500000*%
%ADD11R,2.000000X2.000000*%
%ADD12C,2.000000*%
%ADD13R,2.000000X3.200000*%
%ADD14R,2.000000X1.100000*%
%ADD15RoundRect,0.250000X-0.250000X-0.250000X0.250000X-0.250000X0.250000X0.250000X-0.250000X0.250000X0*%
%ADD16C,1.000000*%
%ADD17R,1.700000X1.700000*%
%ADD18C,1.700000*%
%ADD19C,2.200000*%
%ADD20C,0.650000*%
%ADD21O,1.000000X1.800000*%
%ADD22O,1.000000X2.100000*%
%ADD23C,2.500000*%
%ADD24C,1.200000*%
%ADD25O,1.200000X2.200000*%
%ADD26O,1.600000X2.300000*%
%ADD27O,2.200000X1.200000*%
%ADD28O,1.600000X2.500000*%
%ADD29O,2.000000X1.500000*%
G04 APERTURE END LIST*
D10*
%TO.C,ENCL1*%
X108000000Y-85250000D03*
X113000000Y-85250000D03*
D11*
X108000000Y-99750000D03*
D12*
X113000000Y-99750000D03*
X110500000Y-99750000D03*
D13*
X104900000Y-92250000D03*
X116100000Y-92250000D03*
%TD*%
D14*
%TO.C,LED1*%
X144600000Y-135050000D03*
X149400000Y-135050000D03*
X144600000Y-136750000D03*
X149400000Y-136750000D03*
X144600000Y-138450000D03*
X149400000Y-138450000D03*
%TD*%
%TO.C,LED2*%
X194600000Y-135300000D03*
X199400000Y-135300000D03*
X194600000Y-137000000D03*
X199400000Y-137000000D03*
X194600000Y-138700000D03*
X199400000Y-138700000D03*
%TD*%
D15*
%TO.C,MK1*%
X170963097Y-131000000D03*
D16*
X172863097Y-131000000D03*
%TD*%
D10*
%TO.C,ENCR1*%
X231750000Y-85250000D03*
X236750000Y-85250000D03*
D11*
X231750000Y-99750000D03*
D12*
X236750000Y-99750000D03*
X234250000Y-99750000D03*
D13*
X228650000Y-92250000D03*
X239850000Y-92250000D03*
%TD*%
D12*
%TO.C,TAC_SWITCH_1*%
X127500000Y-121750000D03*
X127500000Y-126250000D03*
X134000000Y-126250000D03*
X134000000Y-121750000D03*
%TD*%
D17*
%TO.C,J2*%
X168320597Y-81300000D03*
D18*
X170860597Y-81300000D03*
X173400597Y-81300000D03*
X175940597Y-81300000D03*
%TD*%
D12*
%TO.C,TAC_SWITCH_2*%
X210500000Y-121750000D03*
X210500000Y-126250000D03*
X217000000Y-126250000D03*
X217000000Y-121750000D03*
%TD*%
D19*
%TO.C,TAC_SHIFT_L1*%
X116000000Y-66175000D03*
X109000000Y-66175000D03*
D18*
X114750000Y-63675000D03*
X110250000Y-63675000D03*
%TD*%
D19*
%TO.C,TAC_SHIFT_R1*%
X235750000Y-65925000D03*
X228750000Y-65925000D03*
D18*
X234500000Y-63425000D03*
X230000000Y-63425000D03*
%TD*%
D20*
%TO.C,P2*%
X133860000Y-67180000D03*
X139640000Y-67180000D03*
D21*
X132430000Y-63500000D03*
D22*
X132430001Y-67680001D03*
D21*
X141070000Y-63500000D03*
D22*
X141070000Y-67680000D03*
%TD*%
D23*
%TO.C,SW1*%
X124550000Y-62760465D03*
X129000000Y-62760465D03*
X126775000Y-72920465D03*
X126775000Y-76730465D03*
X126775000Y-80540465D03*
%TD*%
D24*
%TO.C,J3*%
X190500000Y-62750000D03*
X190500000Y-65250000D03*
X195500000Y-70250000D03*
X200500000Y-62750000D03*
X200500000Y-65250000D03*
D25*
X190500000Y-70250000D03*
D26*
X193000000Y-70250000D03*
D27*
X195500000Y-65250000D03*
D25*
X200500000Y-70250000D03*
D28*
X198000000Y-70250000D03*
%TD*%
D24*
%TO.C,J7*%
X244000000Y-159500000D03*
X244000000Y-157000000D03*
X239000000Y-152000000D03*
X234000000Y-159500000D03*
X234000000Y-157000000D03*
D25*
X244000000Y-152000000D03*
D26*
X241500000Y-152000000D03*
D27*
X239000000Y-157000000D03*
D25*
X234000000Y-152000000D03*
D28*
X236500000Y-152000000D03*
%TD*%
D17*
%TO.C,A1*%
X195635597Y-160620000D03*
D18*
X193095597Y-160620000D03*
X190555597Y-160620000D03*
X188015597Y-160620000D03*
X185475597Y-160620000D03*
X182935597Y-160620000D03*
X180395597Y-160620000D03*
X177855597Y-160620000D03*
X175315597Y-160620000D03*
X172775597Y-160620000D03*
X170235597Y-160620000D03*
X167695597Y-160620000D03*
X165155597Y-160620000D03*
X162615597Y-160620000D03*
X160075597Y-160620000D03*
X157535597Y-160620000D03*
X154995597Y-160620000D03*
X152455597Y-160620000D03*
X149915597Y-160620000D03*
X147375597Y-160620000D03*
X147375597Y-145380000D03*
X149915597Y-145380000D03*
X152455597Y-145380000D03*
X154995597Y-145380000D03*
X157535597Y-145380000D03*
X160075597Y-145380000D03*
X162615597Y-145380000D03*
X165155597Y-145380000D03*
X167695597Y-145380000D03*
X170235597Y-145380000D03*
X172775597Y-145380000D03*
X175315597Y-145380000D03*
X177855597Y-145380000D03*
X180395597Y-145380000D03*
X182935597Y-145380000D03*
X185475597Y-145380000D03*
X188015597Y-145380000D03*
X190555597Y-145380000D03*
X193095597Y-145380000D03*
X195635597Y-145380000D03*
%TD*%
D24*
%TO.C,J5*%
X160400000Y-62900000D03*
X160400000Y-65400000D03*
X165400000Y-70400000D03*
X170400000Y-62900000D03*
X170400000Y-65400000D03*
D25*
X160400000Y-70400000D03*
D26*
X162900000Y-70400000D03*
D27*
X165400000Y-65400000D03*
D25*
X170400000Y-70400000D03*
D28*
X167900000Y-70400000D03*
%TD*%
D24*
%TO.C,J4*%
X175350000Y-62900000D03*
X175350000Y-65400000D03*
X180350000Y-70400000D03*
X185350000Y-62900000D03*
X185350000Y-65400000D03*
D25*
X175350000Y-70400000D03*
D26*
X177850000Y-70400000D03*
D27*
X180350000Y-65400000D03*
D25*
X185350000Y-70400000D03*
D28*
X182850000Y-70400000D03*
%TD*%
D24*
%TO.C,J6*%
X205500000Y-62750000D03*
X205500000Y-65250000D03*
X210500000Y-70250000D03*
X215500000Y-62750000D03*
X215500000Y-65250000D03*
D25*
X205500000Y-70250000D03*
D26*
X208000000Y-70250000D03*
D27*
X210500000Y-65250000D03*
D25*
X215500000Y-70250000D03*
D28*
X213000000Y-70250000D03*
%TD*%
D29*
%TO.C,J1*%
X149900000Y-65750000D03*
D12*
X149900000Y-70150000D03*
%TD*%
M02*
