%TF.GenerationSoftware,KiCad,Pcbnew,9.0.4*%
%TF.CreationDate,2026-10-07T12:54:26-05:00*%
%TF.ProjectId,WavetableController,57617665-7461-4626-9c65-436f6e74726f,rev?*%
%TF.SameCoordinates,Original*%
%TF.FileFunction,Paste,Bot*%
%TF.FilePolarity,Positive*%
%FSLAX46Y46*%
G04 Gerber Fmt 4.6, Leading zero omitted, Abs format (unit mm)*
G04 Created by KiCad (PCBNEW 9.0.4) date 2026-10-07 12:54:26*
%MOMM*%
%LPD*%
G01*
G04 APERTURE LIST*
G04 Aperture macros list*
%AMRoundRect*
0 Rectangle with rounded corners*
0 $1 Rounding radius*
0 $2 $3 $4 $5 $6 $7 $8 $9 X,Y pos of 4 corners*
0 Add a 4 corners polygon primitive as box body*
4,1,4,$2,$3,$4,$5,$6,$7,$8,$9,$2,$3,0*
0 Add four circle primitives for the rounded corners*
1,1,$1+$1,$2,$3*
1,1,$1+$1,$4,$5*
1,1,$1+$1,$6,$7*
1,1,$1+$1,$8,$9*
0 Add four rect primitives between the rounded corners*
20,1,$1+$1,$2,$3,$4,$5,0*
20,1,$1+$1,$4,$5,$6,$7,0*
20,1,$1+$1,$6,$7,$8,$9,0*
20,1,$1+$1,$8,$9,$2,$3,0*%
G04 Aperture macros list end*
%ADD10RoundRect,0.225000X-0.225000X-0.250000X0.225000X-0.250000X0.225000X0.250000X-0.225000X0.250000X0*%
%ADD11RoundRect,0.225000X0.225000X0.250000X-0.225000X0.250000X-0.225000X-0.250000X0.225000X-0.250000X0*%
%ADD12RoundRect,0.200000X-0.200000X-0.275000X0.200000X-0.275000X0.200000X0.275000X-0.200000X0.275000X0*%
%ADD13RoundRect,0.200000X0.200000X0.275000X-0.200000X0.275000X-0.200000X-0.275000X0.200000X-0.275000X0*%
%ADD14RoundRect,0.112500X0.187500X0.112500X-0.187500X0.112500X-0.187500X-0.112500X0.187500X-0.112500X0*%
%ADD15RoundRect,0.500000X1.000000X0.500000X-1.000000X0.500000X-1.000000X-0.500000X1.000000X-0.500000X0*%
%ADD16RoundRect,0.112500X-0.187500X-0.112500X0.187500X-0.112500X0.187500X0.112500X-0.187500X0.112500X0*%
%ADD17RoundRect,0.218750X0.218750X0.256250X-0.218750X0.256250X-0.218750X-0.256250X0.218750X-0.256250X0*%
%ADD18RoundRect,0.150000X-0.150000X-0.425000X0.150000X-0.425000X0.150000X0.425000X-0.150000X0.425000X0*%
%ADD19RoundRect,0.075000X-0.075000X-0.500000X0.075000X-0.500000X0.075000X0.500000X-0.075000X0.500000X0*%
%ADD20O,1.000000X1.800000*%
%ADD21O,1.000000X2.100000*%
%ADD22RoundRect,0.200000X0.275000X-0.200000X0.275000X0.200000X-0.275000X0.200000X-0.275000X-0.200000X0*%
%ADD23RoundRect,0.200000X-0.275000X0.200000X-0.275000X-0.200000X0.275000X-0.200000X0.275000X0.200000X0*%
%ADD24RoundRect,0.225000X-0.250000X0.225000X-0.250000X-0.225000X0.250000X-0.225000X0.250000X0.225000X0*%
%ADD25RoundRect,0.093750X0.156250X0.093750X-0.156250X0.093750X-0.156250X-0.093750X0.156250X-0.093750X0*%
%ADD26RoundRect,0.075000X0.250000X0.075000X-0.250000X0.075000X-0.250000X-0.075000X0.250000X-0.075000X0*%
%ADD27R,0.700000X1.200000*%
%ADD28R,1.000000X0.800000*%
%ADD29R,1.000000X2.800000*%
%ADD30R,1.000000X1.200000*%
%ADD31R,1.300000X1.900000*%
%ADD32RoundRect,0.250000X-1.500000X-0.550000X1.500000X-0.550000X1.500000X0.550000X-1.500000X0.550000X0*%
%ADD33RoundRect,0.225000X0.250000X-0.225000X0.250000X0.225000X-0.250000X0.225000X-0.250000X-0.225000X0*%
%ADD34RoundRect,0.250000X1.500000X0.550000X-1.500000X0.550000X-1.500000X-0.550000X1.500000X-0.550000X0*%
%ADD35RoundRect,0.157500X0.157500X0.222500X-0.157500X0.222500X-0.157500X-0.222500X0.157500X-0.222500X0*%
%ADD36RoundRect,0.125000X0.600000X0.125000X-0.600000X0.125000X-0.600000X-0.125000X0.600000X-0.125000X0*%
%ADD37RoundRect,0.218750X0.218750X0.381250X-0.218750X0.381250X-0.218750X-0.381250X0.218750X-0.381250X0*%
%ADD38R,0.700000X0.970000*%
%ADD39R,0.700000X0.250000*%
%ADD40RoundRect,0.218750X0.256250X-0.218750X0.256250X0.218750X-0.256250X0.218750X-0.256250X-0.218750X0*%
%ADD41RoundRect,0.112500X0.112500X-0.187500X0.112500X0.187500X-0.112500X0.187500X-0.112500X-0.187500X0*%
%ADD42R,3.000000X2.000000*%
%ADD43R,0.650000X0.750000*%
%ADD44RoundRect,0.062500X0.062500X-0.187500X0.062500X0.187500X-0.062500X0.187500X-0.062500X-0.187500X0*%
%ADD45RoundRect,0.112500X-0.112500X0.187500X-0.112500X-0.187500X0.112500X-0.187500X0.112500X0.187500X0*%
G04 APERTURE END LIST*
D10*
%TO.C,C11*%
X183652201Y-156489255D03*
X185202201Y-156489255D03*
%TD*%
D11*
%TO.C,C26*%
X196525000Y-116500000D03*
X194975000Y-116500000D03*
%TD*%
D12*
%TO.C,R34*%
X192425000Y-122000000D03*
X194075000Y-122000000D03*
%TD*%
D13*
%TO.C,R6*%
X207825000Y-92000000D03*
X206175000Y-92000000D03*
%TD*%
D14*
%TO.C,D3*%
X142800000Y-80750000D03*
X140700000Y-80750000D03*
%TD*%
D15*
%TO.C,U1*%
X215080000Y-84920000D03*
X215060000Y-87230000D03*
X215080000Y-89530000D03*
X207880000Y-89520000D03*
X207880000Y-87230000D03*
X207890000Y-84920000D03*
%TD*%
D11*
%TO.C,C12*%
X194525000Y-158000000D03*
X192975000Y-158000000D03*
%TD*%
D16*
%TO.C,D6*%
X132700000Y-100250000D03*
X134800000Y-100250000D03*
%TD*%
D17*
%TO.C,FB7*%
X198752500Y-128000000D03*
X197177500Y-128000000D03*
%TD*%
D18*
%TO.C,P2*%
X120549999Y-67755000D03*
X121350000Y-67755000D03*
D19*
X122500000Y-67754999D03*
X123500001Y-67755000D03*
X124000001Y-67755000D03*
X125000000Y-67754999D03*
D18*
X126150000Y-67755000D03*
X126950001Y-67755000D03*
X126950001Y-67755000D03*
X126150000Y-67755000D03*
D19*
X125499999Y-67755000D03*
X124500000Y-67755000D03*
X123000000Y-67755000D03*
X122000000Y-67754999D03*
D18*
X121350000Y-67755000D03*
X120549999Y-67755000D03*
D20*
X119430000Y-63000000D03*
D21*
X119430001Y-67180001D03*
D20*
X128070000Y-63000000D03*
D21*
X128070000Y-67180000D03*
%TD*%
D22*
%TO.C,R11*%
X102250000Y-145825000D03*
X102250000Y-144175000D03*
%TD*%
D23*
%TO.C,R14*%
X204500000Y-156175000D03*
X204500000Y-157825000D03*
%TD*%
D24*
%TO.C,C1*%
X208735767Y-93451569D03*
X208735767Y-95001569D03*
%TD*%
D22*
%TO.C,R27*%
X198750000Y-131575000D03*
X198750000Y-129925000D03*
%TD*%
D25*
%TO.C,U2*%
X124100000Y-76212500D03*
D26*
X124175000Y-76750000D03*
D25*
X124100000Y-77287500D03*
X122400000Y-77287500D03*
D26*
X122325000Y-76750000D03*
D25*
X122400000Y-76212500D03*
%TD*%
D27*
%TO.C,P1*%
X101495000Y-140690000D03*
X100395000Y-140690000D03*
X99295000Y-140690000D03*
X98195000Y-140690000D03*
X97095000Y-140690000D03*
X95995000Y-140690000D03*
X94895000Y-140690000D03*
X93795000Y-140690000D03*
X92845000Y-140690000D03*
D28*
X91895000Y-130190000D03*
D29*
X91895000Y-126040000D03*
D30*
X91895000Y-136390000D03*
X103045000Y-140690000D03*
D31*
X105395000Y-125590000D03*
%TD*%
D12*
%TO.C,R18*%
X185311790Y-149780847D03*
X186961790Y-149780847D03*
%TD*%
D11*
%TO.C,C8*%
X199275000Y-153000000D03*
X197725000Y-153000000D03*
%TD*%
D32*
%TO.C,C20*%
X147800000Y-110250000D03*
X153200000Y-110250000D03*
%TD*%
D33*
%TO.C,C9*%
X196000000Y-157025000D03*
X196000000Y-155475000D03*
%TD*%
D22*
%TO.C,R1*%
X200573001Y-75697344D03*
X200573001Y-74047344D03*
%TD*%
D12*
%TO.C,R15*%
X213675000Y-159750000D03*
X215325000Y-159750000D03*
%TD*%
D34*
%TO.C,C6*%
X239450000Y-139950000D03*
X234050000Y-139950000D03*
%TD*%
D13*
%TO.C,R12*%
X206149421Y-152273934D03*
X204499421Y-152273934D03*
%TD*%
D22*
%TO.C,R8*%
X95250000Y-149825000D03*
X95250000Y-148175000D03*
%TD*%
%TO.C,R24*%
X149500000Y-131325000D03*
X149500000Y-129675000D03*
%TD*%
D16*
%TO.C,D1*%
X214997878Y-77930166D03*
X217097878Y-77930166D03*
%TD*%
D17*
%TO.C,FB4*%
X139537500Y-88000000D03*
X137962500Y-88000000D03*
%TD*%
D22*
%TO.C,R25*%
X145750000Y-131325000D03*
X145750000Y-129675000D03*
%TD*%
%TO.C,R10*%
X100750000Y-145900000D03*
X100750000Y-144250000D03*
%TD*%
D11*
%TO.C,C25*%
X195525000Y-128000000D03*
X193975000Y-128000000D03*
%TD*%
D34*
%TO.C,C18*%
X124200000Y-115750000D03*
X118800000Y-115750000D03*
%TD*%
D12*
%TO.C,R22*%
X234100000Y-146500000D03*
X235750000Y-146500000D03*
%TD*%
D23*
%TO.C,R4*%
X206250000Y-93425000D03*
X206250000Y-95075000D03*
%TD*%
D12*
%TO.C,R3*%
X215480258Y-76025553D03*
X217130258Y-76025553D03*
%TD*%
D34*
%TO.C,C15*%
X134700000Y-92500000D03*
X129300000Y-92500000D03*
%TD*%
D35*
%TO.C,U3*%
X210030000Y-159250000D03*
X210030000Y-158310000D03*
X209250000Y-159250000D03*
X209250000Y-158310000D03*
D36*
X211790000Y-157805000D03*
X211790000Y-158455000D03*
X211790000Y-159105000D03*
X211790000Y-159755000D03*
X207490000Y-159755000D03*
X207490000Y-159105000D03*
X207490000Y-158455000D03*
X207490000Y-157805000D03*
%TD*%
D17*
%TO.C,FB1*%
X199037500Y-151500000D03*
X197462500Y-151500000D03*
%TD*%
D12*
%TO.C,R20*%
X183675000Y-153000000D03*
X185325000Y-153000000D03*
%TD*%
D13*
%TO.C,R32*%
X141825000Y-114500000D03*
X140175000Y-114500000D03*
%TD*%
D17*
%TO.C,FB3*%
X142787500Y-88000000D03*
X141212500Y-88000000D03*
%TD*%
D10*
%TO.C,C14*%
X144475000Y-88000000D03*
X146025000Y-88000000D03*
%TD*%
%TO.C,C10*%
X185306785Y-154888392D03*
X186856785Y-154888392D03*
%TD*%
D37*
%TO.C,L1*%
X200312500Y-116500000D03*
X198187500Y-116500000D03*
%TD*%
D38*
%TO.C,U4*%
X191149767Y-155868545D03*
X191149767Y-154693545D03*
X190254767Y-155868545D03*
X190254767Y-154693545D03*
D39*
X192179767Y-154081045D03*
X192179767Y-154481045D03*
X192179767Y-154881045D03*
X192179767Y-155281045D03*
X192179767Y-155681045D03*
X192179767Y-156081045D03*
X192179767Y-156481045D03*
X189229767Y-156481045D03*
X189229767Y-156081045D03*
X189229767Y-155681045D03*
X189229767Y-155281045D03*
X189229767Y-154881045D03*
X189229767Y-154481045D03*
X189229767Y-154081045D03*
%TD*%
D17*
%TO.C,FB5*%
X136287500Y-88000000D03*
X134712500Y-88000000D03*
%TD*%
D12*
%TO.C,R19*%
X185336072Y-151276801D03*
X186986072Y-151276801D03*
%TD*%
D32*
%TO.C,C21*%
X144500000Y-119000000D03*
X149900000Y-119000000D03*
%TD*%
D34*
%TO.C,C7*%
X249400000Y-139950000D03*
X244000000Y-139950000D03*
%TD*%
D10*
%TO.C,C4*%
X211725000Y-153750000D03*
X213275000Y-153750000D03*
%TD*%
D23*
%TO.C,R17*%
X125500000Y-71250000D03*
X125500000Y-72900000D03*
%TD*%
D22*
%TO.C,R26*%
X202500000Y-131575000D03*
X202500000Y-129925000D03*
%TD*%
D33*
%TO.C,C5*%
X201844519Y-159074211D03*
X201844519Y-157524211D03*
%TD*%
D11*
%TO.C,C2*%
X213275000Y-152250000D03*
X211725000Y-152250000D03*
%TD*%
D12*
%TO.C,R5*%
X213365885Y-81571198D03*
X215015885Y-81571198D03*
%TD*%
D34*
%TO.C,C22*%
X140150000Y-119000000D03*
X134750000Y-119000000D03*
%TD*%
D40*
%TO.C,FB2*%
X197750000Y-157537500D03*
X197750000Y-155962500D03*
%TD*%
D12*
%TO.C,R33*%
X194925000Y-119500000D03*
X196575000Y-119500000D03*
%TD*%
D22*
%TO.C,R28*%
X196000000Y-131575000D03*
X196000000Y-129925000D03*
%TD*%
%TO.C,R21*%
X153250000Y-131325000D03*
X153250000Y-129675000D03*
%TD*%
%TO.C,R9*%
X99250000Y-145900000D03*
X99250000Y-144250000D03*
%TD*%
D41*
%TO.C,D2*%
X144500000Y-79050000D03*
X144500000Y-76950000D03*
%TD*%
D13*
%TO.C,R23*%
X245575000Y-146500000D03*
X243925000Y-146500000D03*
%TD*%
D11*
%TO.C,C16*%
X134775000Y-98000000D03*
X133225000Y-98000000D03*
%TD*%
D12*
%TO.C,R31*%
X140175000Y-110250000D03*
X141825000Y-110250000D03*
%TD*%
D42*
%TO.C,J1*%
X144400000Y-65650000D03*
X144400000Y-71650000D03*
X155400000Y-65650000D03*
X155400000Y-71650000D03*
%TD*%
D12*
%TO.C,R2*%
X205479923Y-81541149D03*
X207129923Y-81541149D03*
%TD*%
D32*
%TO.C,C19*%
X140050000Y-104500000D03*
X145450000Y-104500000D03*
%TD*%
D23*
%TO.C,R16*%
X122500000Y-71425000D03*
X122500000Y-73075000D03*
%TD*%
D43*
%TO.C,U6*%
X196486554Y-122958827D03*
X197286554Y-122958827D03*
D44*
X197636554Y-123908827D03*
X197136554Y-123908827D03*
X196636554Y-123908827D03*
X196136554Y-123908827D03*
X196136554Y-122008827D03*
X196636554Y-122008827D03*
X197136554Y-122008827D03*
X197636554Y-122008827D03*
%TD*%
D45*
%TO.C,D5*%
X142000000Y-77000000D03*
X142000000Y-79100000D03*
%TD*%
D17*
%TO.C,FB6*%
X131000000Y-100250000D03*
X129425000Y-100250000D03*
%TD*%
D13*
%TO.C,R30*%
X125825000Y-111000000D03*
X124175000Y-111000000D03*
%TD*%
D10*
%TO.C,C3*%
X213767234Y-156664998D03*
X215317234Y-156664998D03*
%TD*%
D22*
%TO.C,R7*%
X93750000Y-149825000D03*
X93750000Y-148175000D03*
%TD*%
D13*
%TO.C,R29*%
X127575000Y-100250000D03*
X125925000Y-100250000D03*
%TD*%
%TO.C,R13*%
X215325000Y-158250000D03*
X213675000Y-158250000D03*
%TD*%
D14*
%TO.C,D4*%
X140800000Y-84750000D03*
X138700000Y-84750000D03*
%TD*%
D11*
%TO.C,C13*%
X199275000Y-154500000D03*
X197725000Y-154500000D03*
%TD*%
D34*
%TO.C,C17*%
X125950000Y-104750000D03*
X120550000Y-104750000D03*
%TD*%
M02*
