%TF.GenerationSoftware,KiCad,Pcbnew,9.0.4*%
%TF.CreationDate,2026-10-07T12:54:53-05:00*%
%TF.ProjectId,WavetableController,57617665-7461-4626-9c65-436f6e74726f,rev?*%
%TF.SameCoordinates,Original*%
%TF.FileFunction,Soldermask,Bot*%
%TF.FilePolarity,Negative*%
%FSLAX46Y46*%
G04 Gerber Fmt 4.6, Leading zero omitted, Abs format (unit mm)*
G04 Created by KiCad (PCBNEW 9.0.4) date 2026-10-07 12:54:53*
%MOMM*%
%LPD*%
G01*
G04 APERTURE LIST*
G04 Aperture macros list*
%AMRoundRect*
0 Rectangle with rounded corners*
0 $1 Rounding radius*
0 $2 $3 $4 $5 $6 $7 $8 $9 X,Y pos of 4 corners*
0 Add a 4 corners polygon primitive as box body*
4,1,4,$2,$3,$4,$5,$6,$7,$8,$9,$2,$3,0*
0 Add four circle primitives for the rounded corners*
1,1,$1+$1,$2,$3*
1,1,$1+$1,$4,$5*
1,1,$1+$1,$6,$7*
1,1,$1+$1,$8,$9*
0 Add four rect primitives between the rounded corners*
20,1,$1+$1,$2,$3,$4,$5,0*
20,1,$1+$1,$4,$5,$6,$7,0*
20,1,$1+$1,$6,$7,$8,$9,0*
20,1,$1+$1,$8,$9,$2,$3,0*%
G04 Aperture macros list end*
%ADD10R,2.000000X2.000000*%
%ADD11C,2.000000*%
%ADD12R,2.000000X3.200000*%
%ADD13C,1.500000*%
%ADD14RoundRect,0.250000X-0.250000X-0.250000X0.250000X-0.250000X0.250000X0.250000X-0.250000X0.250000X0*%
%ADD15C,1.000000*%
%ADD16R,1.700000X1.700000*%
%ADD17C,1.700000*%
%ADD18RoundRect,0.225000X-0.225000X-0.250000X0.225000X-0.250000X0.225000X0.250000X-0.225000X0.250000X0*%
%ADD19RoundRect,0.225000X0.225000X0.250000X-0.225000X0.250000X-0.225000X-0.250000X0.225000X-0.250000X0*%
%ADD20RoundRect,0.200000X-0.200000X-0.275000X0.200000X-0.275000X0.200000X0.275000X-0.200000X0.275000X0*%
%ADD21RoundRect,0.200000X0.200000X0.275000X-0.200000X0.275000X-0.200000X-0.275000X0.200000X-0.275000X0*%
%ADD22RoundRect,0.112500X0.187500X0.112500X-0.187500X0.112500X-0.187500X-0.112500X0.187500X-0.112500X0*%
%ADD23RoundRect,0.500000X1.000000X0.500000X-1.000000X0.500000X-1.000000X-0.500000X1.000000X-0.500000X0*%
%ADD24RoundRect,0.112500X-0.187500X-0.112500X0.187500X-0.112500X0.187500X0.112500X-0.187500X0.112500X0*%
%ADD25C,2.200000*%
%ADD26RoundRect,0.218750X0.218750X0.256250X-0.218750X0.256250X-0.218750X-0.256250X0.218750X-0.256250X0*%
%ADD27C,0.650000*%
%ADD28RoundRect,0.150000X-0.150000X-0.425000X0.150000X-0.425000X0.150000X0.425000X-0.150000X0.425000X0*%
%ADD29RoundRect,0.075000X-0.075000X-0.500000X0.075000X-0.500000X0.075000X0.500000X-0.075000X0.500000X0*%
%ADD30O,1.000000X1.800000*%
%ADD31O,1.000000X2.100000*%
%ADD32RoundRect,0.200000X0.275000X-0.200000X0.275000X0.200000X-0.275000X0.200000X-0.275000X-0.200000X0*%
%ADD33RoundRect,0.200000X-0.275000X0.200000X-0.275000X-0.200000X0.275000X-0.200000X0.275000X0.200000X0*%
%ADD34RoundRect,0.225000X-0.250000X0.225000X-0.250000X-0.225000X0.250000X-0.225000X0.250000X0.225000X0*%
%ADD35C,2.500000*%
%ADD36RoundRect,0.250000X-0.550000X0.550000X-0.550000X-0.550000X0.550000X-0.550000X0.550000X0.550000X0*%
%ADD37C,1.600000*%
%ADD38RoundRect,0.093750X0.156250X0.093750X-0.156250X0.093750X-0.156250X-0.093750X0.156250X-0.093750X0*%
%ADD39RoundRect,0.075000X0.250000X0.075000X-0.250000X0.075000X-0.250000X-0.075000X0.250000X-0.075000X0*%
%ADD40R,0.700000X1.200000*%
%ADD41R,1.000000X0.800000*%
%ADD42R,1.000000X2.800000*%
%ADD43R,1.000000X1.200000*%
%ADD44R,1.300000X1.900000*%
%ADD45RoundRect,0.250000X-1.500000X-0.550000X1.500000X-0.550000X1.500000X0.550000X-1.500000X0.550000X0*%
%ADD46RoundRect,0.450000X-0.450000X0.450000X-0.450000X-0.450000X0.450000X-0.450000X0.450000X0.450000X0*%
%ADD47C,1.800000*%
%ADD48RoundRect,0.225000X0.250000X-0.225000X0.250000X0.225000X-0.250000X0.225000X-0.250000X-0.225000X0*%
%ADD49C,1.200000*%
%ADD50O,1.200000X2.200000*%
%ADD51O,1.600000X2.300000*%
%ADD52O,2.200000X1.200000*%
%ADD53O,1.600000X2.500000*%
%ADD54RoundRect,0.250000X1.500000X0.550000X-1.500000X0.550000X-1.500000X-0.550000X1.500000X-0.550000X0*%
%ADD55RoundRect,0.125000X0.600000X0.125000X-0.600000X0.125000X-0.600000X-0.125000X0.600000X-0.125000X0*%
%ADD56R,1.570000X1.890000*%
%ADD57RoundRect,0.218750X0.218750X0.381250X-0.218750X0.381250X-0.218750X-0.381250X0.218750X-0.381250X0*%
%ADD58R,0.700000X0.250000*%
%ADD59R,1.780000X2.350000*%
%ADD60RoundRect,0.218750X0.256250X-0.218750X0.256250X0.218750X-0.256250X0.218750X-0.256250X-0.218750X0*%
%ADD61RoundRect,0.112500X0.112500X-0.187500X0.112500X0.187500X-0.112500X0.187500X-0.112500X-0.187500X0*%
%ADD62O,2.000000X1.500000*%
%ADD63R,3.000000X2.000000*%
%ADD64RoundRect,0.062500X0.062500X-0.187500X0.062500X0.187500X-0.062500X0.187500X-0.062500X-0.187500X0*%
%ADD65R,1.600000X0.900000*%
%ADD66RoundRect,0.112500X-0.112500X0.187500X-0.112500X-0.187500X0.112500X-0.187500X0.112500X0.187500X0*%
G04 APERTURE END LIST*
D10*
%TO.C,ENCL1*%
X108000000Y-99750000D03*
D11*
X113000000Y-99750000D03*
X110500000Y-99750000D03*
D12*
X104900000Y-92250000D03*
X116100000Y-92250000D03*
D13*
X108000000Y-85250000D03*
X113000000Y-85250000D03*
%TD*%
D14*
%TO.C,MK1*%
X170963097Y-136000000D03*
D15*
X172863097Y-136000000D03*
%TD*%
D10*
%TO.C,ENCR1*%
X231750000Y-99750000D03*
D11*
X236750000Y-99750000D03*
X234250000Y-99750000D03*
D12*
X228650000Y-92250000D03*
X239850000Y-92250000D03*
D13*
X231750000Y-85250000D03*
X236750000Y-85250000D03*
%TD*%
D11*
%TO.C,TAC_SWITCH_1*%
X127500000Y-131750000D03*
X127500000Y-136250000D03*
X134000000Y-136250000D03*
X134000000Y-131750000D03*
%TD*%
D16*
%TO.C,J8*%
X196257849Y-81300946D03*
D17*
X193717849Y-81300946D03*
X191177849Y-81300946D03*
X188637849Y-81300946D03*
X186097849Y-81300946D03*
X183557849Y-81300946D03*
X181017849Y-81300946D03*
X178477849Y-81300946D03*
X175937849Y-81300946D03*
X173397849Y-81300946D03*
X170857849Y-81300946D03*
X168317849Y-81300946D03*
X165777849Y-81300946D03*
X163237849Y-81300946D03*
X160697849Y-81300946D03*
X158157849Y-81300946D03*
X155617849Y-81300946D03*
X153077849Y-81300946D03*
X150537849Y-81300946D03*
X147997849Y-81300946D03*
%TD*%
D11*
%TO.C,TAC_SWITCH_2*%
X210500000Y-131750000D03*
X210500000Y-136250000D03*
X217000000Y-136250000D03*
X217000000Y-131750000D03*
%TD*%
D18*
%TO.C,C11*%
X183652201Y-156489255D03*
X185202201Y-156489255D03*
%TD*%
D19*
%TO.C,C26*%
X196525000Y-116500000D03*
X194975000Y-116500000D03*
%TD*%
D20*
%TO.C,R34*%
X192425000Y-122000000D03*
X194075000Y-122000000D03*
%TD*%
D21*
%TO.C,R6*%
X207825000Y-92000000D03*
X206175000Y-92000000D03*
%TD*%
D22*
%TO.C,D3*%
X142800000Y-80750000D03*
X140700000Y-80750000D03*
%TD*%
D23*
%TO.C,U1*%
X215080000Y-84920000D03*
X215060000Y-87230000D03*
X215080000Y-89530000D03*
X207880000Y-89520000D03*
X207880000Y-87230000D03*
X207890000Y-84920000D03*
%TD*%
D19*
%TO.C,C12*%
X194525000Y-158000000D03*
X192975000Y-158000000D03*
%TD*%
D24*
%TO.C,D6*%
X132700000Y-100250000D03*
X134800000Y-100250000D03*
%TD*%
D25*
%TO.C,TAC_SHIFT_L1*%
X116000000Y-68675000D03*
X109000000Y-68675000D03*
D17*
X114750000Y-66175000D03*
X110250000Y-66175000D03*
%TD*%
D26*
%TO.C,FB7*%
X198752500Y-128000000D03*
X197177500Y-128000000D03*
%TD*%
D25*
%TO.C,TAC_SHIFT_R1*%
X235750000Y-68425000D03*
X228750000Y-68425000D03*
D17*
X234500000Y-65925000D03*
X230000000Y-65925000D03*
%TD*%
D27*
%TO.C,P2*%
X120860000Y-66680000D03*
X126640000Y-66680000D03*
D28*
X120549999Y-67755000D03*
X121350000Y-67755000D03*
D29*
X122500000Y-67754999D03*
X123500001Y-67755000D03*
X124000001Y-67755000D03*
X125000000Y-67754999D03*
D28*
X126150000Y-67755000D03*
X126950001Y-67755000D03*
X126950001Y-67755000D03*
X126150000Y-67755000D03*
D29*
X125499999Y-67755000D03*
X124500000Y-67755000D03*
X123000000Y-67755000D03*
X122000000Y-67754999D03*
D28*
X121350000Y-67755000D03*
X120549999Y-67755000D03*
D30*
X119430000Y-63000000D03*
D31*
X119430001Y-67180001D03*
D30*
X128070000Y-63000000D03*
D31*
X128070000Y-67180000D03*
%TD*%
D32*
%TO.C,R11*%
X102250000Y-145825000D03*
X102250000Y-144175000D03*
%TD*%
D33*
%TO.C,R14*%
X204500000Y-156175000D03*
X204500000Y-157825000D03*
%TD*%
D34*
%TO.C,C1*%
X208735767Y-93451569D03*
X208735767Y-95001569D03*
%TD*%
D35*
%TO.C,SW1*%
X133500000Y-62760465D03*
X137950000Y-62760465D03*
X135725000Y-72920465D03*
X135725000Y-76730465D03*
X135725000Y-80540465D03*
%TD*%
D36*
%TO.C,C24*%
X191750000Y-90250000D03*
D37*
X191750000Y-92750000D03*
%TD*%
D32*
%TO.C,R27*%
X198750000Y-131575000D03*
X198750000Y-129925000D03*
%TD*%
D38*
%TO.C,U2*%
X124100000Y-76212500D03*
D39*
X124175000Y-76750000D03*
D38*
X124100000Y-77287500D03*
X122400000Y-77287500D03*
D39*
X122325000Y-76750000D03*
D38*
X122400000Y-76212500D03*
%TD*%
D40*
%TO.C,P1*%
X101495000Y-140690000D03*
X100395000Y-140690000D03*
X99295000Y-140690000D03*
X98195000Y-140690000D03*
X97095000Y-140690000D03*
X95995000Y-140690000D03*
X94895000Y-140690000D03*
X93795000Y-140690000D03*
X92845000Y-140690000D03*
D41*
X91895000Y-130190000D03*
D42*
X91895000Y-126040000D03*
D43*
X91895000Y-136390000D03*
X103045000Y-140690000D03*
D44*
X105395000Y-125590000D03*
%TD*%
D20*
%TO.C,R18*%
X185311790Y-149780847D03*
X186961790Y-149780847D03*
%TD*%
D19*
%TO.C,C8*%
X199275000Y-153000000D03*
X197725000Y-153000000D03*
%TD*%
D45*
%TO.C,C20*%
X147800000Y-110250000D03*
X153200000Y-110250000D03*
%TD*%
D46*
%TO.C,Headphones1*%
X224750000Y-146500000D03*
D47*
X222250000Y-146500000D03*
X219750000Y-146500000D03*
X224750000Y-144000000D03*
X222250000Y-144000000D03*
X219750000Y-144000000D03*
%TD*%
D48*
%TO.C,C9*%
X196000000Y-157025000D03*
X196000000Y-155475000D03*
%TD*%
D32*
%TO.C,R1*%
X200573001Y-75697344D03*
X200573001Y-74047344D03*
%TD*%
D20*
%TO.C,R15*%
X213675000Y-159750000D03*
X215325000Y-159750000D03*
%TD*%
D49*
%TO.C,J3*%
X190500000Y-62750000D03*
X190500000Y-65250000D03*
X195500000Y-70250000D03*
X200500000Y-62750000D03*
X200500000Y-65250000D03*
D50*
X190500000Y-70250000D03*
D51*
X193000000Y-70250000D03*
D52*
X195500000Y-65250000D03*
D50*
X200500000Y-70250000D03*
D53*
X198000000Y-70250000D03*
%TD*%
D54*
%TO.C,C6*%
X239450000Y-139950000D03*
X234050000Y-139950000D03*
%TD*%
D21*
%TO.C,R12*%
X206149421Y-152273934D03*
X204499421Y-152273934D03*
%TD*%
D32*
%TO.C,R8*%
X95250000Y-149825000D03*
X95250000Y-148175000D03*
%TD*%
%TO.C,R24*%
X149500000Y-131325000D03*
X149500000Y-129675000D03*
%TD*%
D24*
%TO.C,D1*%
X214997878Y-77930166D03*
X217097878Y-77930166D03*
%TD*%
D26*
%TO.C,FB4*%
X139537500Y-88000000D03*
X137962500Y-88000000D03*
%TD*%
D32*
%TO.C,R25*%
X145750000Y-131325000D03*
X145750000Y-129675000D03*
%TD*%
%TO.C,R10*%
X100750000Y-145900000D03*
X100750000Y-144250000D03*
%TD*%
D19*
%TO.C,C25*%
X195525000Y-128000000D03*
X193975000Y-128000000D03*
%TD*%
D54*
%TO.C,C18*%
X124200000Y-115750000D03*
X118800000Y-115750000D03*
%TD*%
D20*
%TO.C,R22*%
X234100000Y-146500000D03*
X235750000Y-146500000D03*
%TD*%
D33*
%TO.C,R4*%
X206250000Y-93425000D03*
X206250000Y-95075000D03*
%TD*%
D20*
%TO.C,R3*%
X215480258Y-76025553D03*
X217130258Y-76025553D03*
%TD*%
D49*
%TO.C,J7*%
X244000000Y-159500000D03*
X244000000Y-157000000D03*
X239000000Y-152000000D03*
X234000000Y-159500000D03*
X234000000Y-157000000D03*
D50*
X244000000Y-152000000D03*
D51*
X241500000Y-152000000D03*
D52*
X239000000Y-157000000D03*
D50*
X234000000Y-152000000D03*
D53*
X236500000Y-152000000D03*
%TD*%
D54*
%TO.C,C15*%
X134700000Y-92500000D03*
X129300000Y-92500000D03*
%TD*%
D55*
%TO.C,U3*%
X211790000Y-157805000D03*
X211790000Y-158455000D03*
X211790000Y-159105000D03*
X211790000Y-159755000D03*
X207490000Y-159755000D03*
X207490000Y-159105000D03*
X207490000Y-158455000D03*
X207490000Y-157805000D03*
D56*
X209640000Y-158780000D03*
%TD*%
D26*
%TO.C,FB1*%
X199037500Y-151500000D03*
X197462500Y-151500000D03*
%TD*%
D20*
%TO.C,R20*%
X183675000Y-153000000D03*
X185325000Y-153000000D03*
%TD*%
D21*
%TO.C,R32*%
X141825000Y-114500000D03*
X140175000Y-114500000D03*
%TD*%
D26*
%TO.C,FB3*%
X142787500Y-88000000D03*
X141212500Y-88000000D03*
%TD*%
D18*
%TO.C,C14*%
X144475000Y-88000000D03*
X146025000Y-88000000D03*
%TD*%
D16*
%TO.C,A1*%
X115460000Y-145510000D03*
D17*
X118000000Y-145510000D03*
X120540000Y-145510000D03*
X123080000Y-145510000D03*
X125620000Y-145510000D03*
X128160000Y-145510000D03*
X130700000Y-145510000D03*
X133240000Y-145510000D03*
X135780000Y-145510000D03*
X138320000Y-145510000D03*
X140860000Y-145510000D03*
X143400000Y-145510000D03*
X145940000Y-145510000D03*
X148480000Y-145510000D03*
X151020000Y-145510000D03*
X153560000Y-145510000D03*
X156100000Y-145510000D03*
X158640000Y-145510000D03*
X161180000Y-145510000D03*
X163720000Y-145510000D03*
X163720000Y-160750000D03*
X161180000Y-160750000D03*
X158640000Y-160750000D03*
X156100000Y-160750000D03*
X153560000Y-160750000D03*
X151020000Y-160750000D03*
X148480000Y-160750000D03*
X145940000Y-160750000D03*
X143400000Y-160750000D03*
X140860000Y-160750000D03*
X138320000Y-160750000D03*
X135780000Y-160750000D03*
X133240000Y-160750000D03*
X130700000Y-160750000D03*
X128160000Y-160750000D03*
X125620000Y-160750000D03*
X123080000Y-160750000D03*
X120540000Y-160750000D03*
X118000000Y-160750000D03*
X115460000Y-160750000D03*
%TD*%
D49*
%TO.C,J5*%
X160400000Y-62800000D03*
X160400000Y-65300000D03*
X165400000Y-70300000D03*
X170400000Y-62800000D03*
X170400000Y-65300000D03*
D50*
X160400000Y-70300000D03*
D51*
X162900000Y-70300000D03*
D52*
X165400000Y-65300000D03*
D50*
X170400000Y-70300000D03*
D53*
X167900000Y-70300000D03*
%TD*%
D18*
%TO.C,C10*%
X185306785Y-154888392D03*
X186856785Y-154888392D03*
%TD*%
D57*
%TO.C,L1*%
X200312500Y-116500000D03*
X198187500Y-116500000D03*
%TD*%
D58*
%TO.C,U4*%
X192179767Y-154081045D03*
X192179767Y-154481045D03*
X192179767Y-154881045D03*
X192179767Y-155281045D03*
X192179767Y-155681045D03*
X192179767Y-156081045D03*
X192179767Y-156481045D03*
X189229767Y-156481045D03*
X189229767Y-156081045D03*
X189229767Y-155681045D03*
X189229767Y-155281045D03*
X189229767Y-154881045D03*
X189229767Y-154481045D03*
X189229767Y-154081045D03*
D59*
X190704767Y-155281045D03*
%TD*%
D49*
%TO.C,J4*%
X175350000Y-62750000D03*
X175350000Y-65250000D03*
X180350000Y-70250000D03*
X185350000Y-62750000D03*
X185350000Y-65250000D03*
D50*
X175350000Y-70250000D03*
D51*
X177850000Y-70250000D03*
D52*
X180350000Y-65250000D03*
D50*
X185350000Y-70250000D03*
D53*
X182850000Y-70250000D03*
%TD*%
D26*
%TO.C,FB5*%
X136287500Y-88000000D03*
X134712500Y-88000000D03*
%TD*%
D20*
%TO.C,R19*%
X185336072Y-151276801D03*
X186986072Y-151276801D03*
%TD*%
D45*
%TO.C,C21*%
X144500000Y-119000000D03*
X149900000Y-119000000D03*
%TD*%
D54*
%TO.C,C7*%
X249400000Y-139950000D03*
X244000000Y-139950000D03*
%TD*%
D18*
%TO.C,C4*%
X211725000Y-153750000D03*
X213275000Y-153750000D03*
%TD*%
D33*
%TO.C,R17*%
X125500000Y-71250000D03*
X125500000Y-72900000D03*
%TD*%
D32*
%TO.C,R26*%
X202500000Y-131575000D03*
X202500000Y-129925000D03*
%TD*%
D48*
%TO.C,C5*%
X201844519Y-159074211D03*
X201844519Y-157524211D03*
%TD*%
D19*
%TO.C,C2*%
X213275000Y-152250000D03*
X211725000Y-152250000D03*
%TD*%
D20*
%TO.C,R5*%
X213365885Y-81571198D03*
X215015885Y-81571198D03*
%TD*%
D54*
%TO.C,C22*%
X140150000Y-119000000D03*
X134750000Y-119000000D03*
%TD*%
D37*
%TO.C,C23*%
X199250000Y-86250000D03*
X191750000Y-86250000D03*
%TD*%
D60*
%TO.C,FB2*%
X197750000Y-157537500D03*
X197750000Y-155962500D03*
%TD*%
D49*
%TO.C,J6*%
X205500000Y-62750000D03*
X205500000Y-65250000D03*
X210500000Y-70250000D03*
X215500000Y-62750000D03*
X215500000Y-65250000D03*
D50*
X205500000Y-70250000D03*
D51*
X208000000Y-70250000D03*
D52*
X210500000Y-65250000D03*
D50*
X215500000Y-70250000D03*
D53*
X213000000Y-70250000D03*
%TD*%
D20*
%TO.C,R33*%
X194925000Y-119500000D03*
X196575000Y-119500000D03*
%TD*%
D32*
%TO.C,R28*%
X196000000Y-131575000D03*
X196000000Y-129925000D03*
%TD*%
%TO.C,R21*%
X153250000Y-131325000D03*
X153250000Y-129675000D03*
%TD*%
%TO.C,R9*%
X99250000Y-145900000D03*
X99250000Y-144250000D03*
%TD*%
D61*
%TO.C,D2*%
X144500000Y-79050000D03*
X144500000Y-76950000D03*
%TD*%
D21*
%TO.C,R23*%
X245575000Y-146500000D03*
X243925000Y-146500000D03*
%TD*%
D19*
%TO.C,C16*%
X134775000Y-98000000D03*
X133225000Y-98000000D03*
%TD*%
D20*
%TO.C,R31*%
X140175000Y-110250000D03*
X141825000Y-110250000D03*
%TD*%
D62*
%TO.C,J1*%
X149900000Y-65750000D03*
D11*
X149900000Y-70150000D03*
D63*
X144400000Y-65650000D03*
X144400000Y-71650000D03*
X155400000Y-65650000D03*
X155400000Y-71650000D03*
%TD*%
D20*
%TO.C,R2*%
X205479923Y-81541149D03*
X207129923Y-81541149D03*
%TD*%
D45*
%TO.C,C19*%
X140050000Y-104500000D03*
X145450000Y-104500000D03*
%TD*%
D33*
%TO.C,R16*%
X122500000Y-71425000D03*
X122500000Y-73075000D03*
%TD*%
D64*
%TO.C,U6*%
X197636554Y-123908827D03*
X197136554Y-123908827D03*
X196636554Y-123908827D03*
X196136554Y-123908827D03*
X196136554Y-122008827D03*
X196636554Y-122008827D03*
X197136554Y-122008827D03*
X197636554Y-122008827D03*
D65*
X196886554Y-122958827D03*
%TD*%
D66*
%TO.C,D5*%
X142000000Y-77000000D03*
X142000000Y-79100000D03*
%TD*%
D26*
%TO.C,FB6*%
X131000000Y-100250000D03*
X129425000Y-100250000D03*
%TD*%
D21*
%TO.C,R30*%
X125825000Y-111000000D03*
X124175000Y-111000000D03*
%TD*%
D18*
%TO.C,C3*%
X213767234Y-156664998D03*
X215317234Y-156664998D03*
%TD*%
D32*
%TO.C,R7*%
X93750000Y-149825000D03*
X93750000Y-148175000D03*
%TD*%
D21*
%TO.C,R29*%
X127575000Y-100250000D03*
X125925000Y-100250000D03*
%TD*%
%TO.C,R13*%
X215325000Y-158250000D03*
X213675000Y-158250000D03*
%TD*%
D22*
%TO.C,D4*%
X140800000Y-84750000D03*
X138700000Y-84750000D03*
%TD*%
D19*
%TO.C,C13*%
X199275000Y-154500000D03*
X197725000Y-154500000D03*
%TD*%
D54*
%TO.C,C17*%
X125950000Y-104750000D03*
X120550000Y-104750000D03*
%TD*%
M02*
