M48
; DRILL file {KiCad 9.0.4} date 2026-10-07T12:54:22-0500
; FORMAT={-:-/ absolute / metric / decimal}
; #@! TF.CreationDate,2026-10-07T12:54:22-05:00
; #@! TF.GenerationSoftware,Kicad,Pcbnew,9.0.4
; #@! TF.FileFunction,NonPlated,1,2,NPTH
FMAT,2
METRIC
; #@! TA.AperFunction,NonPlated,NPTH,ComponentDrill
T1C0.650
; #@! TA.AperFunction,NonPlated,NPTH,ComponentDrill
T2C1.200
; #@! TA.AperFunction,NonPlated,NPTH,ComponentDrill
T3C1.500
; #@! TA.AperFunction,NonPlated,NPTH,ComponentDrill
T4C2.000
%
G90
G05
T1
X120.86Y-66.68
X126.64Y-66.68
T2
X160.4Y-62.8
X160.4Y-65.3
X165.4Y-70.3
X170.4Y-62.8
X170.4Y-65.3
X175.35Y-62.75
X175.35Y-65.25
X180.35Y-70.25
X185.35Y-62.75
X185.35Y-65.25
X190.5Y-62.75
X190.5Y-65.25
X195.5Y-70.25
X200.5Y-62.75
X200.5Y-65.25
X205.5Y-62.75
X205.5Y-65.25
X210.5Y-70.25
X215.5Y-62.75
X215.5Y-65.25
X234.0Y-157.0
X234.0Y-159.5
X239.0Y-152.0
X244.0Y-157.0
X244.0Y-159.5
T4
X149.9Y-70.15
T3
G00X150.15Y-65.75
M15
G01X149.65Y-65.75
M16
G05
M30
