%TF.GenerationSoftware,KiCad,Pcbnew,9.0.4*%
%TF.CreationDate,2026-10-07T12:54:26-05:00*%
%TF.ProjectId,WavetableController,57617665-7461-4626-9c65-436f6e74726f,rev?*%
%TF.SameCoordinates,Original*%
%TF.FileFunction,Legend,Top*%
%TF.FilePolarity,Positive*%
%FSLAX46Y46*%
G04 Gerber Fmt 4.6, Leading zero omitted, Abs format (unit mm)*
G04 Created by KiCad (PCBNEW 9.0.4) date 2026-10-07 12:54:26*
%MOMM*%
%LPD*%
G01*
G04 APERTURE LIST*
%ADD10C,0.150000*%
%ADD11C,0.120000*%
G04 APERTURE END LIST*
D10*
X103780952Y-101931009D02*
X104114285Y-101931009D01*
X104257142Y-102454819D02*
X103780952Y-102454819D01*
X103780952Y-102454819D02*
X103780952Y-101454819D01*
X103780952Y-101454819D02*
X104257142Y-101454819D01*
X104685714Y-102454819D02*
X104685714Y-101454819D01*
X104685714Y-101454819D02*
X105257142Y-102454819D01*
X105257142Y-102454819D02*
X105257142Y-101454819D01*
X106304761Y-102359580D02*
X106257142Y-102407200D01*
X106257142Y-102407200D02*
X106114285Y-102454819D01*
X106114285Y-102454819D02*
X106019047Y-102454819D01*
X106019047Y-102454819D02*
X105876190Y-102407200D01*
X105876190Y-102407200D02*
X105780952Y-102311961D01*
X105780952Y-102311961D02*
X105733333Y-102216723D01*
X105733333Y-102216723D02*
X105685714Y-102026247D01*
X105685714Y-102026247D02*
X105685714Y-101883390D01*
X105685714Y-101883390D02*
X105733333Y-101692914D01*
X105733333Y-101692914D02*
X105780952Y-101597676D01*
X105780952Y-101597676D02*
X105876190Y-101502438D01*
X105876190Y-101502438D02*
X106019047Y-101454819D01*
X106019047Y-101454819D02*
X106114285Y-101454819D01*
X106114285Y-101454819D02*
X106257142Y-101502438D01*
X106257142Y-101502438D02*
X106304761Y-101550057D01*
X107209523Y-102454819D02*
X106733333Y-102454819D01*
X106733333Y-102454819D02*
X106733333Y-101454819D01*
X108066666Y-102454819D02*
X107495238Y-102454819D01*
X107780952Y-102454819D02*
X107780952Y-101454819D01*
X107780952Y-101454819D02*
X107685714Y-101597676D01*
X107685714Y-101597676D02*
X107590476Y-101692914D01*
X107590476Y-101692914D02*
X107495238Y-101740533D01*
X145880952Y-133704819D02*
X145404762Y-133704819D01*
X145404762Y-133704819D02*
X145404762Y-132704819D01*
X146214286Y-133181009D02*
X146547619Y-133181009D01*
X146690476Y-133704819D02*
X146214286Y-133704819D01*
X146214286Y-133704819D02*
X146214286Y-132704819D01*
X146214286Y-132704819D02*
X146690476Y-132704819D01*
X147119048Y-133704819D02*
X147119048Y-132704819D01*
X147119048Y-132704819D02*
X147357143Y-132704819D01*
X147357143Y-132704819D02*
X147500000Y-132752438D01*
X147500000Y-132752438D02*
X147595238Y-132847676D01*
X147595238Y-132847676D02*
X147642857Y-132942914D01*
X147642857Y-132942914D02*
X147690476Y-133133390D01*
X147690476Y-133133390D02*
X147690476Y-133276247D01*
X147690476Y-133276247D02*
X147642857Y-133466723D01*
X147642857Y-133466723D02*
X147595238Y-133561961D01*
X147595238Y-133561961D02*
X147500000Y-133657200D01*
X147500000Y-133657200D02*
X147357143Y-133704819D01*
X147357143Y-133704819D02*
X147119048Y-133704819D01*
X148642857Y-133704819D02*
X148071429Y-133704819D01*
X148357143Y-133704819D02*
X148357143Y-132704819D01*
X148357143Y-132704819D02*
X148261905Y-132847676D01*
X148261905Y-132847676D02*
X148166667Y-132942914D01*
X148166667Y-132942914D02*
X148071429Y-132990533D01*
X170603573Y-133454819D02*
X170603573Y-132454819D01*
X170603573Y-132454819D02*
X170936906Y-133169104D01*
X170936906Y-133169104D02*
X171270239Y-132454819D01*
X171270239Y-132454819D02*
X171270239Y-133454819D01*
X171746430Y-133454819D02*
X171746430Y-132454819D01*
X172317858Y-133454819D02*
X171889287Y-132883390D01*
X172317858Y-132454819D02*
X171746430Y-133026247D01*
X173270239Y-133454819D02*
X172698811Y-133454819D01*
X172984525Y-133454819D02*
X172984525Y-132454819D01*
X172984525Y-132454819D02*
X172889287Y-132597676D01*
X172889287Y-132597676D02*
X172794049Y-132692914D01*
X172794049Y-132692914D02*
X172698811Y-132740533D01*
X227685714Y-102181009D02*
X228019047Y-102181009D01*
X228161904Y-102704819D02*
X227685714Y-102704819D01*
X227685714Y-102704819D02*
X227685714Y-101704819D01*
X227685714Y-101704819D02*
X228161904Y-101704819D01*
X228590476Y-102704819D02*
X228590476Y-101704819D01*
X228590476Y-101704819D02*
X229161904Y-102704819D01*
X229161904Y-102704819D02*
X229161904Y-101704819D01*
X230209523Y-102609580D02*
X230161904Y-102657200D01*
X230161904Y-102657200D02*
X230019047Y-102704819D01*
X230019047Y-102704819D02*
X229923809Y-102704819D01*
X229923809Y-102704819D02*
X229780952Y-102657200D01*
X229780952Y-102657200D02*
X229685714Y-102561961D01*
X229685714Y-102561961D02*
X229638095Y-102466723D01*
X229638095Y-102466723D02*
X229590476Y-102276247D01*
X229590476Y-102276247D02*
X229590476Y-102133390D01*
X229590476Y-102133390D02*
X229638095Y-101942914D01*
X229638095Y-101942914D02*
X229685714Y-101847676D01*
X229685714Y-101847676D02*
X229780952Y-101752438D01*
X229780952Y-101752438D02*
X229923809Y-101704819D01*
X229923809Y-101704819D02*
X230019047Y-101704819D01*
X230019047Y-101704819D02*
X230161904Y-101752438D01*
X230161904Y-101752438D02*
X230209523Y-101800057D01*
X231209523Y-102704819D02*
X230876190Y-102228628D01*
X230638095Y-102704819D02*
X230638095Y-101704819D01*
X230638095Y-101704819D02*
X231019047Y-101704819D01*
X231019047Y-101704819D02*
X231114285Y-101752438D01*
X231114285Y-101752438D02*
X231161904Y-101800057D01*
X231161904Y-101800057D02*
X231209523Y-101895295D01*
X231209523Y-101895295D02*
X231209523Y-102038152D01*
X231209523Y-102038152D02*
X231161904Y-102133390D01*
X231161904Y-102133390D02*
X231114285Y-102181009D01*
X231114285Y-102181009D02*
X231019047Y-102228628D01*
X231019047Y-102228628D02*
X230638095Y-102228628D01*
X232161904Y-102704819D02*
X231590476Y-102704819D01*
X231876190Y-102704819D02*
X231876190Y-101704819D01*
X231876190Y-101704819D02*
X231780952Y-101847676D01*
X231780952Y-101847676D02*
X231685714Y-101942914D01*
X231685714Y-101942914D02*
X231590476Y-101990533D01*
X195889898Y-133654819D02*
X195413708Y-133654819D01*
X195413708Y-133654819D02*
X195413708Y-132654819D01*
X196223232Y-133131009D02*
X196556565Y-133131009D01*
X196699422Y-133654819D02*
X196223232Y-133654819D01*
X196223232Y-133654819D02*
X196223232Y-132654819D01*
X196223232Y-132654819D02*
X196699422Y-132654819D01*
X197127994Y-133654819D02*
X197127994Y-132654819D01*
X197127994Y-132654819D02*
X197366089Y-132654819D01*
X197366089Y-132654819D02*
X197508946Y-132702438D01*
X197508946Y-132702438D02*
X197604184Y-132797676D01*
X197604184Y-132797676D02*
X197651803Y-132892914D01*
X197651803Y-132892914D02*
X197699422Y-133083390D01*
X197699422Y-133083390D02*
X197699422Y-133226247D01*
X197699422Y-133226247D02*
X197651803Y-133416723D01*
X197651803Y-133416723D02*
X197604184Y-133511961D01*
X197604184Y-133511961D02*
X197508946Y-133607200D01*
X197508946Y-133607200D02*
X197366089Y-133654819D01*
X197366089Y-133654819D02*
X197127994Y-133654819D01*
X198080375Y-132750057D02*
X198127994Y-132702438D01*
X198127994Y-132702438D02*
X198223232Y-132654819D01*
X198223232Y-132654819D02*
X198461327Y-132654819D01*
X198461327Y-132654819D02*
X198556565Y-132702438D01*
X198556565Y-132702438D02*
X198604184Y-132750057D01*
X198604184Y-132750057D02*
X198651803Y-132845295D01*
X198651803Y-132845295D02*
X198651803Y-132940533D01*
X198651803Y-132940533D02*
X198604184Y-133083390D01*
X198604184Y-133083390D02*
X198032756Y-133654819D01*
X198032756Y-133654819D02*
X198651803Y-133654819D01*
X125607143Y-129204819D02*
X126178571Y-129204819D01*
X125892857Y-130204819D02*
X125892857Y-129204819D01*
X126464286Y-129919104D02*
X126940476Y-129919104D01*
X126369048Y-130204819D02*
X126702381Y-129204819D01*
X126702381Y-129204819D02*
X127035714Y-130204819D01*
X127940476Y-130109580D02*
X127892857Y-130157200D01*
X127892857Y-130157200D02*
X127750000Y-130204819D01*
X127750000Y-130204819D02*
X127654762Y-130204819D01*
X127654762Y-130204819D02*
X127511905Y-130157200D01*
X127511905Y-130157200D02*
X127416667Y-130061961D01*
X127416667Y-130061961D02*
X127369048Y-129966723D01*
X127369048Y-129966723D02*
X127321429Y-129776247D01*
X127321429Y-129776247D02*
X127321429Y-129633390D01*
X127321429Y-129633390D02*
X127369048Y-129442914D01*
X127369048Y-129442914D02*
X127416667Y-129347676D01*
X127416667Y-129347676D02*
X127511905Y-129252438D01*
X127511905Y-129252438D02*
X127654762Y-129204819D01*
X127654762Y-129204819D02*
X127750000Y-129204819D01*
X127750000Y-129204819D02*
X127892857Y-129252438D01*
X127892857Y-129252438D02*
X127940476Y-129300057D01*
X128130953Y-130300057D02*
X128892857Y-130300057D01*
X129083334Y-130157200D02*
X129226191Y-130204819D01*
X129226191Y-130204819D02*
X129464286Y-130204819D01*
X129464286Y-130204819D02*
X129559524Y-130157200D01*
X129559524Y-130157200D02*
X129607143Y-130109580D01*
X129607143Y-130109580D02*
X129654762Y-130014342D01*
X129654762Y-130014342D02*
X129654762Y-129919104D01*
X129654762Y-129919104D02*
X129607143Y-129823866D01*
X129607143Y-129823866D02*
X129559524Y-129776247D01*
X129559524Y-129776247D02*
X129464286Y-129728628D01*
X129464286Y-129728628D02*
X129273810Y-129681009D01*
X129273810Y-129681009D02*
X129178572Y-129633390D01*
X129178572Y-129633390D02*
X129130953Y-129585771D01*
X129130953Y-129585771D02*
X129083334Y-129490533D01*
X129083334Y-129490533D02*
X129083334Y-129395295D01*
X129083334Y-129395295D02*
X129130953Y-129300057D01*
X129130953Y-129300057D02*
X129178572Y-129252438D01*
X129178572Y-129252438D02*
X129273810Y-129204819D01*
X129273810Y-129204819D02*
X129511905Y-129204819D01*
X129511905Y-129204819D02*
X129654762Y-129252438D01*
X129988096Y-129204819D02*
X130226191Y-130204819D01*
X130226191Y-130204819D02*
X130416667Y-129490533D01*
X130416667Y-129490533D02*
X130607143Y-130204819D01*
X130607143Y-130204819D02*
X130845239Y-129204819D01*
X131226191Y-130204819D02*
X131226191Y-129204819D01*
X131559524Y-129204819D02*
X132130952Y-129204819D01*
X131845238Y-130204819D02*
X131845238Y-129204819D01*
X133035714Y-130109580D02*
X132988095Y-130157200D01*
X132988095Y-130157200D02*
X132845238Y-130204819D01*
X132845238Y-130204819D02*
X132750000Y-130204819D01*
X132750000Y-130204819D02*
X132607143Y-130157200D01*
X132607143Y-130157200D02*
X132511905Y-130061961D01*
X132511905Y-130061961D02*
X132464286Y-129966723D01*
X132464286Y-129966723D02*
X132416667Y-129776247D01*
X132416667Y-129776247D02*
X132416667Y-129633390D01*
X132416667Y-129633390D02*
X132464286Y-129442914D01*
X132464286Y-129442914D02*
X132511905Y-129347676D01*
X132511905Y-129347676D02*
X132607143Y-129252438D01*
X132607143Y-129252438D02*
X132750000Y-129204819D01*
X132750000Y-129204819D02*
X132845238Y-129204819D01*
X132845238Y-129204819D02*
X132988095Y-129252438D01*
X132988095Y-129252438D02*
X133035714Y-129300057D01*
X133464286Y-130204819D02*
X133464286Y-129204819D01*
X133464286Y-129681009D02*
X134035714Y-129681009D01*
X134035714Y-130204819D02*
X134035714Y-129204819D01*
X134273810Y-130300057D02*
X135035714Y-130300057D01*
X135797619Y-130204819D02*
X135226191Y-130204819D01*
X135511905Y-130204819D02*
X135511905Y-129204819D01*
X135511905Y-129204819D02*
X135416667Y-129347676D01*
X135416667Y-129347676D02*
X135321429Y-129442914D01*
X135321429Y-129442914D02*
X135226191Y-129490533D01*
X198092668Y-81634279D02*
X198806953Y-81634279D01*
X198806953Y-81634279D02*
X198949810Y-81681898D01*
X198949810Y-81681898D02*
X199045049Y-81777136D01*
X199045049Y-81777136D02*
X199092668Y-81919993D01*
X199092668Y-81919993D02*
X199092668Y-82015231D01*
X198521239Y-81015231D02*
X198473620Y-81110469D01*
X198473620Y-81110469D02*
X198426001Y-81158088D01*
X198426001Y-81158088D02*
X198330763Y-81205707D01*
X198330763Y-81205707D02*
X198283144Y-81205707D01*
X198283144Y-81205707D02*
X198187906Y-81158088D01*
X198187906Y-81158088D02*
X198140287Y-81110469D01*
X198140287Y-81110469D02*
X198092668Y-81015231D01*
X198092668Y-81015231D02*
X198092668Y-80824755D01*
X198092668Y-80824755D02*
X198140287Y-80729517D01*
X198140287Y-80729517D02*
X198187906Y-80681898D01*
X198187906Y-80681898D02*
X198283144Y-80634279D01*
X198283144Y-80634279D02*
X198330763Y-80634279D01*
X198330763Y-80634279D02*
X198426001Y-80681898D01*
X198426001Y-80681898D02*
X198473620Y-80729517D01*
X198473620Y-80729517D02*
X198521239Y-80824755D01*
X198521239Y-80824755D02*
X198521239Y-81015231D01*
X198521239Y-81015231D02*
X198568858Y-81110469D01*
X198568858Y-81110469D02*
X198616477Y-81158088D01*
X198616477Y-81158088D02*
X198711715Y-81205707D01*
X198711715Y-81205707D02*
X198902191Y-81205707D01*
X198902191Y-81205707D02*
X198997429Y-81158088D01*
X198997429Y-81158088D02*
X199045049Y-81110469D01*
X199045049Y-81110469D02*
X199092668Y-81015231D01*
X199092668Y-81015231D02*
X199092668Y-80824755D01*
X199092668Y-80824755D02*
X199045049Y-80729517D01*
X199045049Y-80729517D02*
X198997429Y-80681898D01*
X198997429Y-80681898D02*
X198902191Y-80634279D01*
X198902191Y-80634279D02*
X198711715Y-80634279D01*
X198711715Y-80634279D02*
X198616477Y-80681898D01*
X198616477Y-80681898D02*
X198568858Y-80729517D01*
X198568858Y-80729517D02*
X198521239Y-80824755D01*
X208607143Y-129204819D02*
X209178571Y-129204819D01*
X208892857Y-130204819D02*
X208892857Y-129204819D01*
X209464286Y-129919104D02*
X209940476Y-129919104D01*
X209369048Y-130204819D02*
X209702381Y-129204819D01*
X209702381Y-129204819D02*
X210035714Y-130204819D01*
X210940476Y-130109580D02*
X210892857Y-130157200D01*
X210892857Y-130157200D02*
X210750000Y-130204819D01*
X210750000Y-130204819D02*
X210654762Y-130204819D01*
X210654762Y-130204819D02*
X210511905Y-130157200D01*
X210511905Y-130157200D02*
X210416667Y-130061961D01*
X210416667Y-130061961D02*
X210369048Y-129966723D01*
X210369048Y-129966723D02*
X210321429Y-129776247D01*
X210321429Y-129776247D02*
X210321429Y-129633390D01*
X210321429Y-129633390D02*
X210369048Y-129442914D01*
X210369048Y-129442914D02*
X210416667Y-129347676D01*
X210416667Y-129347676D02*
X210511905Y-129252438D01*
X210511905Y-129252438D02*
X210654762Y-129204819D01*
X210654762Y-129204819D02*
X210750000Y-129204819D01*
X210750000Y-129204819D02*
X210892857Y-129252438D01*
X210892857Y-129252438D02*
X210940476Y-129300057D01*
X211130953Y-130300057D02*
X211892857Y-130300057D01*
X212083334Y-130157200D02*
X212226191Y-130204819D01*
X212226191Y-130204819D02*
X212464286Y-130204819D01*
X212464286Y-130204819D02*
X212559524Y-130157200D01*
X212559524Y-130157200D02*
X212607143Y-130109580D01*
X212607143Y-130109580D02*
X212654762Y-130014342D01*
X212654762Y-130014342D02*
X212654762Y-129919104D01*
X212654762Y-129919104D02*
X212607143Y-129823866D01*
X212607143Y-129823866D02*
X212559524Y-129776247D01*
X212559524Y-129776247D02*
X212464286Y-129728628D01*
X212464286Y-129728628D02*
X212273810Y-129681009D01*
X212273810Y-129681009D02*
X212178572Y-129633390D01*
X212178572Y-129633390D02*
X212130953Y-129585771D01*
X212130953Y-129585771D02*
X212083334Y-129490533D01*
X212083334Y-129490533D02*
X212083334Y-129395295D01*
X212083334Y-129395295D02*
X212130953Y-129300057D01*
X212130953Y-129300057D02*
X212178572Y-129252438D01*
X212178572Y-129252438D02*
X212273810Y-129204819D01*
X212273810Y-129204819D02*
X212511905Y-129204819D01*
X212511905Y-129204819D02*
X212654762Y-129252438D01*
X212988096Y-129204819D02*
X213226191Y-130204819D01*
X213226191Y-130204819D02*
X213416667Y-129490533D01*
X213416667Y-129490533D02*
X213607143Y-130204819D01*
X213607143Y-130204819D02*
X213845239Y-129204819D01*
X214226191Y-130204819D02*
X214226191Y-129204819D01*
X214559524Y-129204819D02*
X215130952Y-129204819D01*
X214845238Y-130204819D02*
X214845238Y-129204819D01*
X216035714Y-130109580D02*
X215988095Y-130157200D01*
X215988095Y-130157200D02*
X215845238Y-130204819D01*
X215845238Y-130204819D02*
X215750000Y-130204819D01*
X215750000Y-130204819D02*
X215607143Y-130157200D01*
X215607143Y-130157200D02*
X215511905Y-130061961D01*
X215511905Y-130061961D02*
X215464286Y-129966723D01*
X215464286Y-129966723D02*
X215416667Y-129776247D01*
X215416667Y-129776247D02*
X215416667Y-129633390D01*
X215416667Y-129633390D02*
X215464286Y-129442914D01*
X215464286Y-129442914D02*
X215511905Y-129347676D01*
X215511905Y-129347676D02*
X215607143Y-129252438D01*
X215607143Y-129252438D02*
X215750000Y-129204819D01*
X215750000Y-129204819D02*
X215845238Y-129204819D01*
X215845238Y-129204819D02*
X215988095Y-129252438D01*
X215988095Y-129252438D02*
X216035714Y-129300057D01*
X216464286Y-130204819D02*
X216464286Y-129204819D01*
X216464286Y-129681009D02*
X217035714Y-129681009D01*
X217035714Y-130204819D02*
X217035714Y-129204819D01*
X217273810Y-130300057D02*
X218035714Y-130300057D01*
X218226191Y-129300057D02*
X218273810Y-129252438D01*
X218273810Y-129252438D02*
X218369048Y-129204819D01*
X218369048Y-129204819D02*
X218607143Y-129204819D01*
X218607143Y-129204819D02*
X218702381Y-129252438D01*
X218702381Y-129252438D02*
X218750000Y-129300057D01*
X218750000Y-129300057D02*
X218797619Y-129395295D01*
X218797619Y-129395295D02*
X218797619Y-129490533D01*
X218797619Y-129490533D02*
X218750000Y-129633390D01*
X218750000Y-129633390D02*
X218178572Y-130204819D01*
X218178572Y-130204819D02*
X218797619Y-130204819D01*
D11*
%TO.C,ENCL1*%
X104600000Y-86150000D02*
X107200000Y-86150000D01*
X104600000Y-90250000D02*
X104600000Y-86150000D01*
X104700000Y-94250000D02*
X104700000Y-98350000D01*
X104700000Y-98350000D02*
X116400000Y-98350000D01*
X106400000Y-99450000D02*
X106700000Y-99750000D01*
X106400000Y-100050000D02*
X106400000Y-99450000D01*
X106700000Y-99750000D02*
X106400000Y-100050000D01*
X109200000Y-86150000D02*
X111800000Y-86150000D01*
X110000000Y-92250000D02*
X111000000Y-92250000D01*
X110500000Y-92750000D02*
X110500000Y-91750000D01*
X113800000Y-86150000D02*
X116400000Y-86150000D01*
X116400000Y-86150000D02*
X116400000Y-90250000D01*
X116400000Y-94250000D02*
X116400000Y-98350000D01*
X113500000Y-92250000D02*
G75*
G02*
X107500000Y-92250000I-3000000J0D01*
G01*
X107500000Y-92250000D02*
G75*
G02*
X113500000Y-92250000I3000000J0D01*
G01*
%TO.C,LED1*%
X144500000Y-134050000D02*
X149500000Y-134050000D01*
X149500000Y-139450000D02*
X144500000Y-139450000D01*
X144000000Y-134250000D02*
X143760000Y-133920000D01*
X144240000Y-133920000D01*
X144000000Y-134250000D01*
G36*
X144000000Y-134250000D02*
G01*
X143760000Y-133920000D01*
X144240000Y-133920000D01*
X144000000Y-134250000D01*
G37*
%TO.C,MK1*%
X175263097Y-134800000D02*
X175263097Y-135400000D01*
X175263097Y-135100000D02*
X174963097Y-135100000D01*
X175263097Y-135100000D02*
X175563097Y-135100000D01*
X175023097Y-137000000D02*
G75*
G02*
X168803097Y-137000000I-3110000J0D01*
G01*
X168803097Y-137000000D02*
G75*
G02*
X175023097Y-137000000I3110000J0D01*
G01*
%TO.C,ENCR1*%
X228350000Y-86150000D02*
X230950000Y-86150000D01*
X228350000Y-90250000D02*
X228350000Y-86150000D01*
X228450000Y-94250000D02*
X228450000Y-98350000D01*
X228450000Y-98350000D02*
X240150000Y-98350000D01*
X230150000Y-99450000D02*
X230450000Y-99750000D01*
X230150000Y-100050000D02*
X230150000Y-99450000D01*
X230450000Y-99750000D02*
X230150000Y-100050000D01*
X232950000Y-86150000D02*
X235550000Y-86150000D01*
X233750000Y-92250000D02*
X234750000Y-92250000D01*
X234250000Y-92750000D02*
X234250000Y-91750000D01*
X237550000Y-86150000D02*
X240150000Y-86150000D01*
X240150000Y-86150000D02*
X240150000Y-90250000D01*
X240150000Y-94250000D02*
X240150000Y-98350000D01*
X237250000Y-92250000D02*
G75*
G02*
X231250000Y-92250000I-3000000J0D01*
G01*
X231250000Y-92250000D02*
G75*
G02*
X237250000Y-92250000I3000000J0D01*
G01*
%TO.C,LED2*%
X194508946Y-134000000D02*
X199508946Y-134000000D01*
X199508946Y-139400000D02*
X194508946Y-139400000D01*
X194008946Y-134200000D02*
X193768946Y-133870000D01*
X194248946Y-133870000D01*
X194008946Y-134200000D01*
G36*
X194008946Y-134200000D02*
G01*
X193768946Y-133870000D01*
X194248946Y-133870000D01*
X194008946Y-134200000D01*
G37*
%TO.C,TAC_SWITCH_1*%
X127250000Y-133250000D02*
X127250000Y-134750000D01*
X128500000Y-137250000D02*
X133000000Y-137250000D01*
X133000000Y-130750000D02*
X128500000Y-130750000D01*
X134250000Y-134750000D02*
X134250000Y-133250000D01*
%TO.C,J8*%
X146617849Y-79920946D02*
X146617849Y-82680946D01*
X194987849Y-79920946D02*
X146617849Y-79920946D01*
X194987849Y-79920946D02*
X194987849Y-82680946D01*
X194987849Y-82680946D02*
X146617849Y-82680946D01*
X196257849Y-79920946D02*
X197637849Y-79920946D01*
X197637849Y-79920946D02*
X197637849Y-81300946D01*
%TO.C,TAC_SWITCH_2*%
X210250000Y-133250000D02*
X210250000Y-134750000D01*
X211500000Y-137250000D02*
X216000000Y-137250000D01*
X216000000Y-130750000D02*
X211500000Y-130750000D01*
X217250000Y-134750000D02*
X217250000Y-133250000D01*
%TD*%
M02*
