M48
; DRILL file {KiCad 9.0.4} date 2026-10-07T12:54:22-0500
; FORMAT={-:-/ absolute / metric / decimal}
; #@! TF.CreationDate,2026-10-07T12:54:22-05:00
; #@! TF.GenerationSoftware,Kicad,Pcbnew,9.0.4
; #@! TF.FileFunction,Plated,1,2,PTH
FMAT,2
METRIC
; #@! TA.AperFunction,Plated,PTH,ComponentDrill
T1C0.250
; #@! TA.AperFunction,Plated,PTH,ViaDrill
T2C0.300
; #@! TA.AperFunction,Plated,PTH,ComponentDrill
T3C0.400
; #@! TA.AperFunction,Plated,PTH,ComponentDrill
T4C0.600
; #@! TA.AperFunction,Plated,PTH,ComponentDrill
T5C0.650
; #@! TA.AperFunction,Plated,PTH,ComponentDrill
T6C0.800
; #@! TA.AperFunction,Plated,PTH,ComponentDrill
T7C1.000
; #@! TA.AperFunction,Plated,PTH,ComponentDrill
T8C1.100
; #@! TA.AperFunction,Plated,PTH,ComponentDrill
T9C1.300
; #@! TA.AperFunction,Plated,PTH,ComponentDrill
T10C1.500
; #@! TA.AperFunction,Plated,PTH,ComponentDrill
T11C1.850
%
G90
G05
T1
X196.387Y-122.959
X197.387Y-122.959
T2
X91.75Y-149.75
X93.75Y-147.0
X93.795Y-142.25
X94.5Y-138.0
X94.895Y-142.25
X95.25Y-147.0
X96.75Y-136.5
X97.25Y-142.25
X99.25Y-102.5
X99.25Y-105.25
X100.5Y-71.5
X100.5Y-73.75
X100.5Y-102.75
X100.5Y-105.0
X101.75Y-139.5
X102.75Y-135.5
X104.0Y-147.25
X106.75Y-134.75
X106.75Y-148.5
X108.0Y-104.75
X108.0Y-119.0
X108.0Y-122.75
X108.0Y-134.75
X108.0Y-148.5
X109.0Y-118.75
X109.0Y-121.75
X109.0Y-134.75
X109.0Y-148.5
X110.0Y-132.25
X110.0Y-148.5
X110.75Y-71.0
X111.0Y-72.25
X111.0Y-118.5
X111.0Y-121.5
X111.0Y-130.75
X111.0Y-148.5
X112.0Y-105.0
X112.0Y-118.75
X112.0Y-121.5
X112.0Y-130.75
X112.0Y-148.5
X113.5Y-71.0
X113.5Y-72.25
X115.75Y-134.5
X118.0Y-140.0
X120.0Y-147.5
X120.75Y-77.0
X121.25Y-152.5
X121.25Y-153.75
X121.25Y-154.75
X121.75Y-136.5
X122.0Y-75.25
X122.25Y-138.5
X123.7Y-70.5
X123.75Y-74.75
X123.75Y-120.5
X123.75Y-135.5
X124.25Y-69.5
X124.466Y-74.392
X125.5Y-75.75
X126.0Y-78.0
X130.0Y-143.25
X131.25Y-133.85
X131.25Y-135.5
X132.0Y-131.0
X132.009Y-135.247
X135.5Y-132.75
X135.5Y-135.15
X136.0Y-68.25
X136.25Y-132.0
X136.293Y-135.256
X137.25Y-129.25
X137.25Y-135.5
X138.25Y-128.5
X138.25Y-135.25
X144.5Y-129.0
X144.5Y-131.25
X147.5Y-138.25
X151.5Y-136.5
X152.25Y-104.0
X152.25Y-140.5
X152.25Y-143.25
X152.75Y-135.0
X152.75Y-152.5
X152.96Y-153.272
X154.0Y-123.5
X154.25Y-140.5
X154.25Y-143.25
X154.75Y-67.75
X154.75Y-124.5
X154.75Y-125.5
X154.75Y-126.5
X154.75Y-127.45
X154.75Y-128.75
X154.75Y-132.0
X154.997Y-151.759
X155.25Y-140.5
X155.25Y-143.25
X155.25Y-151.0
X156.713Y-151.597
X156.747Y-153.195
X156.758Y-152.395
X157.0Y-150.85
X157.5Y-104.0
X157.5Y-125.5
X157.5Y-126.45
X157.5Y-127.25
X157.5Y-128.25
X157.5Y-129.5
X157.5Y-132.0
X159.75Y-132.75
X161.25Y-132.75
X162.75Y-158.0
X163.25Y-157.0
X166.0Y-146.5
X166.0Y-149.0
X167.0Y-146.449
X167.0Y-149.0
X167.75Y-145.9
X167.8Y-149.0
X168.5Y-142.9
X168.6Y-149.0
X169.4Y-149.0
X169.5Y-142.25
X170.25Y-149.0
X170.3Y-142.25
X171.25Y-142.25
X171.25Y-149.0
X172.5Y-142.0
X172.5Y-149.25
X174.0Y-149.25
X174.25Y-142.4
X177.25Y-104.0
X177.25Y-126.5
X177.75Y-125.5
X180.25Y-148.75
X180.5Y-144.75
X181.5Y-145.499
X181.5Y-148.75
X181.75Y-125.5
X181.75Y-126.5
X182.5Y-153.5
X182.5Y-156.25
X185.75Y-137.5
X186.0Y-140.75
X186.75Y-156.5
X187.5Y-137.0
X187.5Y-141.0
X187.75Y-159.074
X188.3Y-156.5
X189.5Y-142.25
X189.5Y-144.5
X189.75Y-104.0
X190.5Y-124.75
X190.5Y-132.5
X190.5Y-137.25
X191.0Y-144.25
X191.5Y-138.25
X191.5Y-142.25
X191.747Y-148.259
X191.75Y-140.0
X191.9Y-139.0
X192.0Y-146.5
X192.0Y-147.5
X192.497Y-144.741
X192.75Y-145.5
X193.0Y-143.25
X193.5Y-156.75
X193.75Y-129.5
X194.5Y-145.5
X194.5Y-153.75
X194.5Y-155.5
X194.75Y-147.5
X195.0Y-146.5
X195.5Y-140.0
X195.5Y-142.25
X195.75Y-148.25
X196.5Y-139.75
X197.0Y-139.0
X197.5Y-138.0
X197.75Y-159.074
X201.5Y-136.25
X202.25Y-134.75
X202.5Y-104.0
X202.5Y-138.75
X202.5Y-139.75
X202.75Y-76.25
X202.75Y-96.5
X203.25Y-132.5
X203.75Y-124.75
X203.75Y-127.15
X203.75Y-131.0
X204.0Y-138.75
X204.0Y-139.75
X204.25Y-150.5
X206.5Y-97.25
X206.7Y-124.5
X206.7Y-127.25
X206.7Y-132.5
X206.741Y-131.003
X207.5Y-124.5
X207.5Y-127.25
X207.5Y-130.75
X207.5Y-132.5
X207.5Y-152.25
X208.0Y-142.25
X208.5Y-104.0
X210.0Y-142.25
X210.25Y-92.5
X210.75Y-152.25
X211.75Y-94.25
X214.0Y-155.5
X222.5Y-140.25
X225.5Y-125.5
X225.5Y-126.5
X225.5Y-130.25
X226.5Y-139.0
X227.5Y-137.75
X228.75Y-126.5
X228.75Y-130.25
X229.0Y-140.25
X229.75Y-155.25
X232.75Y-125.5
X239.5Y-149.25
X244.25Y-83.75
T5
X170.963Y-136.0
X172.863Y-136.0
T6
X191.75Y-86.25
X191.75Y-90.25
X191.75Y-92.75
X199.25Y-86.25
T7
X108.0Y-85.25
X108.0Y-99.75
X110.25Y-66.175
X110.5Y-99.75
X113.0Y-85.25
X113.0Y-99.75
X114.75Y-66.175
X147.998Y-81.301
X150.538Y-81.301
X153.078Y-81.301
X155.618Y-81.301
X158.158Y-81.301
X160.698Y-81.301
X163.238Y-81.301
X165.778Y-81.301
X168.318Y-81.301
X170.858Y-81.301
X173.398Y-81.301
X175.938Y-81.301
X178.478Y-81.301
X181.018Y-81.301
X183.558Y-81.301
X186.098Y-81.301
X188.638Y-81.301
X191.178Y-81.301
X193.718Y-81.301
X196.258Y-81.301
X219.75Y-144.0
X219.75Y-146.5
X222.25Y-144.0
X222.25Y-146.5
X224.75Y-144.0
X224.75Y-146.5
X230.0Y-65.925
X231.75Y-85.25
X231.75Y-99.75
X234.25Y-99.75
X234.5Y-65.925
X236.75Y-85.25
X236.75Y-99.75
T8
X115.46Y-145.51
X115.46Y-160.75
X118.0Y-145.51
X118.0Y-160.75
X120.54Y-145.51
X120.54Y-160.75
X123.08Y-145.51
X123.08Y-160.75
X125.62Y-145.51
X125.62Y-160.75
X127.5Y-131.75
X127.5Y-136.25
X128.16Y-145.51
X128.16Y-160.75
X130.7Y-145.51
X130.7Y-160.75
X133.24Y-145.51
X133.24Y-160.75
X134.0Y-131.75
X134.0Y-136.25
X135.78Y-145.51
X135.78Y-160.75
X138.32Y-145.51
X138.32Y-160.75
X140.86Y-145.51
X140.86Y-160.75
X143.4Y-145.51
X143.4Y-160.75
X145.94Y-145.51
X145.94Y-160.75
X148.48Y-145.51
X148.48Y-160.75
X151.02Y-145.51
X151.02Y-160.75
X153.56Y-145.51
X153.56Y-160.75
X156.1Y-145.51
X156.1Y-160.75
X158.64Y-145.51
X158.64Y-160.75
X161.18Y-145.51
X161.18Y-160.75
X163.72Y-145.51
X163.72Y-160.75
X210.5Y-131.75
X210.5Y-136.25
X217.0Y-131.75
X217.0Y-136.25
T9
X109.0Y-68.675
X116.0Y-68.675
X228.75Y-68.425
X235.75Y-68.425
T11
X133.5Y-62.76
X135.725Y-72.92
X135.725Y-76.73
X135.725Y-80.54
X137.95Y-62.76
T3
G00X160.4Y-69.8
M15
G01X160.4Y-70.8
M16
G05
G00X164.9Y-65.3
M15
G01X165.9Y-65.3
M16
G05
G00X170.4Y-70.8
M15
G01X170.4Y-69.8
M16
G05
G00X175.35Y-69.75
M15
G01X175.35Y-70.75
M16
G05
G00X179.85Y-65.25
M15
G01X180.85Y-65.25
M16
G05
G00X185.35Y-70.75
M15
G01X185.35Y-69.75
M16
G05
G00X190.5Y-69.75
M15
G01X190.5Y-70.75
M16
G05
G00X195.0Y-65.25
M15
G01X196.0Y-65.25
M16
G05
G00X200.5Y-70.75
M15
G01X200.5Y-69.75
M16
G05
G00X205.5Y-69.75
M15
G01X205.5Y-70.75
M16
G05
G00X210.0Y-65.25
M15
G01X211.0Y-65.25
M16
G05
G00X215.5Y-70.75
M15
G01X215.5Y-69.75
M16
G05
G00X234.0Y-151.5
M15
G01X234.0Y-152.5
M16
G05
G00X239.5Y-157.0
M15
G01X238.5Y-157.0
M16
G05
G00X244.0Y-152.5
M15
G01X244.0Y-151.5
M16
G05
T4
G00X119.43Y-62.6
M15
G01X119.43Y-63.4
M16
G05
G00X119.43Y-66.63
M15
G01X119.43Y-67.73
M16
G05
G00X128.07Y-62.6
M15
G01X128.07Y-63.4
M16
G05
G00X128.07Y-66.63
M15
G01X128.07Y-67.73
M16
G05
T6
G00X162.9Y-69.95
M15
G01X162.9Y-70.65
M16
G05
G00X167.9Y-70.65
M15
G01X167.9Y-69.95
M16
G05
G00X177.85Y-69.9
M15
G01X177.85Y-70.6
M16
G05
G00X182.85Y-70.6
M15
G01X182.85Y-69.9
M16
G05
G00X193.0Y-69.9
M15
G01X193.0Y-70.6
M16
G05
G00X198.0Y-70.6
M15
G01X198.0Y-69.9
M16
G05
G00X208.0Y-69.9
M15
G01X208.0Y-70.6
M16
G05
G00X213.0Y-70.6
M15
G01X213.0Y-69.9
M16
G05
G00X236.5Y-151.65
M15
G01X236.5Y-152.35
M16
G05
G00X241.5Y-152.35
M15
G01X241.5Y-151.65
M16
G05
T10
G00X104.9Y-92.9
M15
G01X104.9Y-91.6
M16
G05
G00X116.1Y-92.9
M15
G01X116.1Y-91.6
M16
G05
G00X228.65Y-92.9
M15
G01X228.65Y-91.6
M16
G05
G00X239.85Y-92.9
M15
G01X239.85Y-91.6
M16
G05
M30
